<mxfile host="Electron" agent="Mozilla/5.0 (Macintosh; Intel Mac OS X 10_15_7) AppleWebKit/537.36 (KHTML, like Gecko) draw.io/27.0.9 Chrome/134.0.6998.205 Electron/35.4.0 Safari/537.36" version="27.0.9">
  <diagram id="C5RBs43oDa-KdzZeNtuy" name="Page-1">
    <mxGraphModel dx="4506" dy="2794" grid="1" gridSize="10" guides="1" tooltips="1" connect="1" arrows="1" fold="1" page="1" pageScale="1" pageWidth="1654" pageHeight="1169" math="0" shadow="0">
      <root>
        <mxCell id="WIyWlLk6GJQsqaUBKTNV-0" />
        <mxCell id="WIyWlLk6GJQsqaUBKTNV-1" parent="WIyWlLk6GJQsqaUBKTNV-0" />
        <mxCell id="QaDs3v1icvES4gzAtx_r-142" style="edgeStyle=orthogonalEdgeStyle;rounded=0;orthogonalLoop=1;jettySize=auto;html=1;entryX=0.5;entryY=0;entryDx=0;entryDy=0;exitX=0;exitY=0.5;exitDx=0;exitDy=0;" parent="WIyWlLk6GJQsqaUBKTNV-1" source="pJNRvae56pVTqdE-GDw2-98" target="QaDs3v1icvES4gzAtx_r-8" edge="1">
          <mxGeometry relative="1" as="geometry">
            <mxPoint x="670" y="90" as="sourcePoint" />
            <Array as="points">
              <mxPoint x="677" y="70" />
              <mxPoint x="430" y="70" />
            </Array>
          </mxGeometry>
        </mxCell>
        <mxCell id="QaDs3v1icvES4gzAtx_r-143" style="edgeStyle=orthogonalEdgeStyle;rounded=0;orthogonalLoop=1;jettySize=auto;html=1;exitX=1;exitY=0.816;exitDx=0;exitDy=0;exitPerimeter=0;" parent="WIyWlLk6GJQsqaUBKTNV-1" source="pJNRvae56pVTqdE-GDw2-98" target="QaDs3v1icvES4gzAtx_r-22" edge="1">
          <mxGeometry relative="1" as="geometry">
            <Array as="points">
              <mxPoint x="1107" y="87" />
            </Array>
            <mxPoint x="850" y="90" as="sourcePoint" />
          </mxGeometry>
        </mxCell>
        <mxCell id="QaDs3v1icvES4gzAtx_r-144" style="edgeStyle=orthogonalEdgeStyle;rounded=0;orthogonalLoop=1;jettySize=auto;html=1;exitX=0.562;exitY=1.001;exitDx=0;exitDy=0;exitPerimeter=0;" parent="WIyWlLk6GJQsqaUBKTNV-1" source="pJNRvae56pVTqdE-GDw2-100" target="QaDs3v1icvES4gzAtx_r-42" edge="1">
          <mxGeometry relative="1" as="geometry">
            <Array as="points">
              <mxPoint x="767" y="440" />
              <mxPoint x="895" y="440" />
            </Array>
            <mxPoint x="780" y="130" as="sourcePoint" />
          </mxGeometry>
        </mxCell>
        <mxCell id="QaDs3v1icvES4gzAtx_r-146" style="edgeStyle=orthogonalEdgeStyle;rounded=0;orthogonalLoop=1;jettySize=auto;html=1;exitX=1;exitY=0.811;exitDx=0;exitDy=0;exitPerimeter=0;entryX=0.84;entryY=0;entryDx=0;entryDy=0;entryPerimeter=0;" parent="WIyWlLk6GJQsqaUBKTNV-1" source="pJNRvae56pVTqdE-GDw2-98" edge="1" target="QaDs3v1icvES4gzAtx_r-37">
          <mxGeometry relative="1" as="geometry">
            <mxPoint x="1407" y="1007" as="targetPoint" />
            <Array as="points">
              <mxPoint x="1567" y="87" />
              <mxPoint x="1567" y="717" />
              <mxPoint x="1407" y="717" />
            </Array>
            <mxPoint x="890" y="100" as="sourcePoint" />
          </mxGeometry>
        </mxCell>
        <mxCell id="QaDs3v1icvES4gzAtx_r-148" style="edgeStyle=orthogonalEdgeStyle;rounded=0;orthogonalLoop=1;jettySize=auto;html=1;entryX=0.074;entryY=0.004;entryDx=0;entryDy=0;entryPerimeter=0;exitX=0.562;exitY=0.999;exitDx=0;exitDy=0;exitPerimeter=0;" parent="WIyWlLk6GJQsqaUBKTNV-1" source="pJNRvae56pVTqdE-GDw2-100" target="QaDs3v1icvES4gzAtx_r-29" edge="1">
          <mxGeometry relative="1" as="geometry">
            <Array as="points">
              <mxPoint x="767" y="717" />
              <mxPoint x="817" y="717" />
              <mxPoint x="817" y="967" />
              <mxPoint x="870" y="967" />
            </Array>
            <mxPoint x="767" y="117" as="sourcePoint" />
          </mxGeometry>
        </mxCell>
        <mxCell id="QaDs3v1icvES4gzAtx_r-8" value="+ ImportService: class" style="swimlane;fontStyle=1;align=center;verticalAlign=top;childLayout=stackLayout;horizontal=1;startSize=26;horizontalStack=0;resizeParent=1;resizeParentMax=0;resizeLast=0;collapsible=1;marginBottom=0;whiteSpace=wrap;html=1;fillColor=#d80073;fontColor=#ffffff;strokeColor=#A50040;container=0;" parent="WIyWlLk6GJQsqaUBKTNV-1" vertex="1">
          <mxGeometry x="290" y="90" width="280" height="354" as="geometry" />
        </mxCell>
        <mxCell id="pJNRvae56pVTqdE-GDw2-126" value="+ ImportService ():" style="text;strokeColor=none;fillColor=none;align=left;verticalAlign=top;spacingLeft=4;spacingRight=4;overflow=hidden;rotatable=0;points=[[0,0.5],[1,0.5]];portConstraint=eastwest;whiteSpace=wrap;html=1;" vertex="1" parent="QaDs3v1icvES4gzAtx_r-8">
          <mxGeometry y="26" width="280" height="26" as="geometry" />
        </mxCell>
        <mxCell id="pJNRvae56pVTqdE-GDw2-125" value="" style="line;strokeWidth=1;fillColor=none;align=left;verticalAlign=middle;spacingTop=-1;spacingLeft=3;spacingRight=3;rotatable=0;labelPosition=right;points=[];portConstraint=eastwest;strokeColor=inherit;" vertex="1" parent="QaDs3v1icvES4gzAtx_r-8">
          <mxGeometry y="52" width="280" height="8" as="geometry" />
        </mxCell>
        <mxCell id="QaDs3v1icvES4gzAtx_r-13" value="- cars: List&amp;lt;Car&amp;gt;" style="text;strokeColor=none;fillColor=none;align=left;verticalAlign=top;spacingLeft=4;spacingRight=4;overflow=hidden;rotatable=0;points=[[0,0.5],[1,0.5]];portConstraint=eastwest;whiteSpace=wrap;html=1;container=0;" parent="QaDs3v1icvES4gzAtx_r-8" vertex="1">
          <mxGeometry y="60" width="280" height="26" as="geometry" />
        </mxCell>
        <mxCell id="QaDs3v1icvES4gzAtx_r-9" value="- trips: List&amp;lt;Trip&amp;gt;" style="text;strokeColor=none;fillColor=none;align=left;verticalAlign=top;spacingLeft=4;spacingRight=4;overflow=hidden;rotatable=0;points=[[0,0.5],[1,0.5]];portConstraint=eastwest;whiteSpace=wrap;html=1;container=0;" parent="QaDs3v1icvES4gzAtx_r-8" vertex="1">
          <mxGeometry y="86" width="280" height="26" as="geometry" />
        </mxCell>
        <mxCell id="QaDs3v1icvES4gzAtx_r-12" value="- driver: List&amp;lt;Driver&amp;gt;" style="text;strokeColor=none;fillColor=none;align=left;verticalAlign=top;spacingLeft=4;spacingRight=4;overflow=hidden;rotatable=0;points=[[0,0.5],[1,0.5]];portConstraint=eastwest;whiteSpace=wrap;html=1;container=0;" parent="QaDs3v1icvES4gzAtx_r-8" vertex="1">
          <mxGeometry y="112" width="280" height="26" as="geometry" />
        </mxCell>
        <mxCell id="QaDs3v1icvES4gzAtx_r-10" value="" style="line;strokeWidth=1;fillColor=none;align=left;verticalAlign=middle;spacingTop=-1;spacingLeft=3;spacingRight=3;rotatable=0;labelPosition=right;points=[];portConstraint=eastwest;strokeColor=inherit;container=0;" parent="QaDs3v1icvES4gzAtx_r-8" vertex="1">
          <mxGeometry y="138" width="280" height="8" as="geometry" />
        </mxCell>
        <mxCell id="QaDs3v1icvES4gzAtx_r-14" value="+ loadData (String): void" style="text;strokeColor=none;fillColor=none;align=left;verticalAlign=top;spacingLeft=4;spacingRight=4;overflow=hidden;rotatable=0;points=[[0,0.5],[1,0.5]];portConstraint=eastwest;whiteSpace=wrap;html=1;container=0;" parent="QaDs3v1icvES4gzAtx_r-8" vertex="1">
          <mxGeometry y="146" width="280" height="26" as="geometry" />
        </mxCell>
        <mxCell id="QaDs3v1icvES4gzAtx_r-11" value="- detectEntityType (String): String" style="text;strokeColor=none;fillColor=none;align=left;verticalAlign=top;spacingLeft=4;spacingRight=4;overflow=hidden;rotatable=0;points=[[0,0.5],[1,0.5]];portConstraint=eastwest;whiteSpace=wrap;html=1;container=0;" parent="QaDs3v1icvES4gzAtx_r-8" vertex="1">
          <mxGeometry y="172" width="280" height="26" as="geometry" />
        </mxCell>
        <mxCell id="QaDs3v1icvES4gzAtx_r-17" value="- addDriver (String[], String): void" style="text;strokeColor=none;fillColor=none;align=left;verticalAlign=top;spacingLeft=4;spacingRight=4;overflow=hidden;rotatable=0;points=[[0,0.5],[1,0.5]];portConstraint=eastwest;whiteSpace=wrap;html=1;container=0;" parent="QaDs3v1icvES4gzAtx_r-8" vertex="1">
          <mxGeometry y="198" width="280" height="26" as="geometry" />
        </mxCell>
        <mxCell id="QaDs3v1icvES4gzAtx_r-15" value="- addCar (parts: String[], String): void" style="text;strokeColor=none;fillColor=none;align=left;verticalAlign=top;spacingLeft=4;spacingRight=4;overflow=hidden;rotatable=0;points=[[0,0.5],[1,0.5]];portConstraint=eastwest;whiteSpace=wrap;html=1;container=0;" parent="QaDs3v1icvES4gzAtx_r-8" vertex="1">
          <mxGeometry y="224" width="280" height="26" as="geometry" />
        </mxCell>
        <mxCell id="QaDs3v1icvES4gzAtx_r-16" value="- addTrip (parts: String[], String): void" style="text;strokeColor=none;fillColor=none;align=left;verticalAlign=top;spacingLeft=4;spacingRight=4;overflow=hidden;rotatable=0;points=[[0,0.5],[1,0.5]];portConstraint=eastwest;whiteSpace=wrap;html=1;container=0;" parent="QaDs3v1icvES4gzAtx_r-8" vertex="1">
          <mxGeometry y="250" width="280" height="26" as="geometry" />
        </mxCell>
        <mxCell id="pJNRvae56pVTqdE-GDw2-127" value="+ getCars(): List&amp;lt;Car" style="text;strokeColor=none;fillColor=none;align=left;verticalAlign=top;spacingLeft=4;spacingRight=4;overflow=hidden;rotatable=0;points=[[0,0.5],[1,0.5]];portConstraint=eastwest;whiteSpace=wrap;html=1;" vertex="1" parent="QaDs3v1icvES4gzAtx_r-8">
          <mxGeometry y="276" width="280" height="26" as="geometry" />
        </mxCell>
        <mxCell id="pJNRvae56pVTqdE-GDw2-128" value="+ getTrips(): List&amp;gt;Trip" style="text;strokeColor=none;fillColor=none;align=left;verticalAlign=top;spacingLeft=4;spacingRight=4;overflow=hidden;rotatable=0;points=[[0,0.5],[1,0.5]];portConstraint=eastwest;whiteSpace=wrap;html=1;" vertex="1" parent="QaDs3v1icvES4gzAtx_r-8">
          <mxGeometry y="302" width="280" height="26" as="geometry" />
        </mxCell>
        <mxCell id="pJNRvae56pVTqdE-GDw2-129" value="+ getDrivers(): List&amp;lt;Driver&amp;gt;" style="text;strokeColor=none;fillColor=none;align=left;verticalAlign=top;spacingLeft=4;spacingRight=4;overflow=hidden;rotatable=0;points=[[0,0.5],[1,0.5]];portConstraint=eastwest;whiteSpace=wrap;html=1;" vertex="1" parent="QaDs3v1icvES4gzAtx_r-8">
          <mxGeometry y="328" width="280" height="26" as="geometry" />
        </mxCell>
        <mxCell id="QaDs3v1icvES4gzAtx_r-22" value="+ CommandHandler: class&lt;span style=&quot;color: rgba(0, 0, 0, 0); font-family: monospace; font-size: 0px; font-weight: 400; text-align: start; text-wrap-mode: nowrap;&quot;&gt;%3CmxGraphModel%3E%3Croot%3E%3CmxCell%20id%3D%220%22%2F%3E%3CmxCell%20id%3D%221%22%20parent%3D%220%22%2F%3E%3CmxCell%20id%3D%222%22%20value%3D%22%2B%20includesTime%20(timestamp%3A%20LocalDateTime)%3A%20boolean%22%20style%3D%22text%3BstrokeColor%3Dnone%3BfillColor%3Dnone%3Balign%3Dleft%3BverticalAlign%3Dtop%3BspacingLeft%3D4%3BspacingRight%3D4%3Boverflow%3Dhidden%3Brotatable%3D0%3Bpoints%3D%5B%5B0%2C0.5%5D%2C%5B1%2C0.5%5D%5D%3BportConstraint%3Deastwest%3BwhiteSpace%3Dwrap%3Bhtml%3D1%3B%22%20vertex%3D%221%22%20parent%3D%221%22%3E%3CmxGeometry%20x%3D%2240%22%20y%3D%221102%22%20width%3D%22310%22%20height%3D%2226%22%20as%3D%22geometry%22%2F%3E%3C%2FmxCell%3E%3C%2Froot%3E%3C%2FmxGraphModel%3Ecc&lt;/span&gt;" style="swimlane;fontStyle=1;align=center;verticalAlign=top;childLayout=stackLayout;horizontal=1;startSize=26;horizontalStack=0;resizeParent=1;resizeParentMax=0;resizeLast=0;collapsible=1;marginBottom=0;whiteSpace=wrap;html=1;fillColor=#6a00ff;fontColor=#ffffff;strokeColor=#3700CC;container=0;" parent="WIyWlLk6GJQsqaUBKTNV-1" vertex="1">
          <mxGeometry x="790" y="147" width="580" height="224" as="geometry" />
        </mxCell>
        <mxCell id="pJNRvae56pVTqdE-GDw2-135" value="+ CommandHandler(&lt;span style=&quot;color: light-dark(rgb(0, 0, 0), rgb(255, 255, 255)); background-color: transparent;&quot;&gt;RadarTrapService,&amp;nbsp;&lt;/span&gt;&lt;span style=&quot;color: light-dark(rgb(0, 0, 0), rgb(255, 255, 255)); background-color: transparent;&quot;&gt;LostAndFoundService,&amp;nbsp;&lt;/span&gt;&lt;span style=&quot;color: light-dark(rgb(0, 0, 0), rgb(255, 255, 255)); background-color: transparent;&quot;&gt;DriverSearchService,&amp;nbsp;&lt;/span&gt;&lt;span style=&quot;color: light-dark(rgb(0, 0, 0), rgb(255, 255, 255)); background-color: transparent;&quot;&gt;CarSearchService&lt;/span&gt;&lt;span style=&quot;color: light-dark(rgb(0, 0, 0), rgb(255, 255, 255)); background-color: transparent;&quot;&gt;)&lt;/span&gt;" style="text;strokeColor=none;fillColor=none;align=left;verticalAlign=top;spacingLeft=4;spacingRight=4;overflow=hidden;rotatable=0;points=[[0,0.5],[1,0.5]];portConstraint=eastwest;whiteSpace=wrap;html=1;" vertex="1" parent="QaDs3v1icvES4gzAtx_r-22">
          <mxGeometry y="26" width="580" height="26" as="geometry" />
        </mxCell>
        <mxCell id="pJNRvae56pVTqdE-GDw2-137" value="" style="line;strokeWidth=1;fillColor=none;align=left;verticalAlign=middle;spacingTop=-1;spacingLeft=3;spacingRight=3;rotatable=0;labelPosition=right;points=[];portConstraint=eastwest;strokeColor=inherit;" vertex="1" parent="QaDs3v1icvES4gzAtx_r-22">
          <mxGeometry y="52" width="580" height="8" as="geometry" />
        </mxCell>
        <mxCell id="pJNRvae56pVTqdE-GDw2-136" value="- lostAndFoundService: LostAndFoundService" style="text;strokeColor=none;fillColor=none;align=left;verticalAlign=top;spacingLeft=4;spacingRight=4;overflow=hidden;rotatable=0;points=[[0,0.5],[1,0.5]];portConstraint=eastwest;whiteSpace=wrap;html=1;" vertex="1" parent="QaDs3v1icvES4gzAtx_r-22">
          <mxGeometry y="60" width="580" height="26" as="geometry" />
        </mxCell>
        <mxCell id="QaDs3v1icvES4gzAtx_r-28" value="- driverSearchService: DriverSearchService" style="text;strokeColor=none;fillColor=none;align=left;verticalAlign=top;spacingLeft=4;spacingRight=4;overflow=hidden;rotatable=0;points=[[0,0.5],[1,0.5]];portConstraint=eastwest;whiteSpace=wrap;html=1;container=0;" parent="QaDs3v1icvES4gzAtx_r-22" vertex="1">
          <mxGeometry y="86" width="580" height="26" as="geometry" />
        </mxCell>
        <mxCell id="QaDs3v1icvES4gzAtx_r-23" value="- carSearchService: CarSearchService" style="text;strokeColor=none;fillColor=none;align=left;verticalAlign=top;spacingLeft=4;spacingRight=4;overflow=hidden;rotatable=0;points=[[0,0.5],[1,0.5]];portConstraint=eastwest;whiteSpace=wrap;html=1;container=0;" parent="QaDs3v1icvES4gzAtx_r-22" vertex="1">
          <mxGeometry y="112" width="580" height="26" as="geometry" />
        </mxCell>
        <mxCell id="QaDs3v1icvES4gzAtx_r-26" value="- radarTrapService: RadarTrapService" style="text;align=left;verticalAlign=top;spacingLeft=4;spacingRight=4;overflow=hidden;rotatable=0;points=[[0,0.5],[1,0.5]];portConstraint=eastwest;whiteSpace=wrap;html=1;container=0;" parent="QaDs3v1icvES4gzAtx_r-22" vertex="1">
          <mxGeometry y="138" width="580" height="26" as="geometry" />
        </mxCell>
        <mxCell id="pJNRvae56pVTqdE-GDw2-138" value="" style="line;strokeWidth=1;fillColor=none;align=left;verticalAlign=middle;spacingTop=-1;spacingLeft=3;spacingRight=3;rotatable=0;labelPosition=right;points=[];portConstraint=eastwest;strokeColor=inherit;" vertex="1" parent="QaDs3v1icvES4gzAtx_r-22">
          <mxGeometry y="164" width="580" height="8" as="geometry" />
        </mxCell>
        <mxCell id="QaDs3v1icvES4gzAtx_r-33" value="- &lt;u&gt;printHelp&lt;/u&gt; (): Void" style="text;strokeColor=none;fillColor=none;align=left;verticalAlign=top;spacingLeft=4;spacingRight=4;overflow=hidden;rotatable=0;points=[[0,0.5],[1,0.5]];portConstraint=eastwest;whiteSpace=wrap;html=1;container=0;" parent="QaDs3v1icvES4gzAtx_r-22" vertex="1">
          <mxGeometry y="172" width="580" height="26" as="geometry" />
        </mxCell>
        <mxCell id="pJNRvae56pVTqdE-GDw2-139" value="+ handle (String): void" style="text;strokeColor=none;fillColor=none;align=left;verticalAlign=top;spacingLeft=4;spacingRight=4;overflow=hidden;rotatable=0;points=[[0,0.5],[1,0.5]];portConstraint=eastwest;whiteSpace=wrap;html=1;" vertex="1" parent="QaDs3v1icvES4gzAtx_r-22">
          <mxGeometry y="198" width="580" height="26" as="geometry" />
        </mxCell>
        <mxCell id="QaDs3v1icvES4gzAtx_r-29" value="+ CarSearchService: class" style="swimlane;fontStyle=1;align=center;verticalAlign=top;childLayout=stackLayout;horizontal=1;startSize=26;horizontalStack=0;resizeParent=1;resizeParentMax=0;resizeLast=0;collapsible=1;marginBottom=0;whiteSpace=wrap;html=1;fillColor=#d80073;fontColor=#ffffff;strokeColor=#A50040;container=0;" parent="WIyWlLk6GJQsqaUBKTNV-1" vertex="1">
          <mxGeometry x="850" y="1040" width="270" height="120" as="geometry" />
        </mxCell>
        <mxCell id="QaDs3v1icvES4gzAtx_r-32" value="+ CarSearchService&amp;nbsp;&lt;span style=&quot;background-color: transparent; color: light-dark(rgb(0, 0, 0), rgb(255, 255, 255));&quot;&gt;(List&amp;lt;Car&amp;gt;):&lt;/span&gt;" style="text;strokeColor=none;fillColor=none;align=left;verticalAlign=top;spacingLeft=4;spacingRight=4;overflow=hidden;rotatable=0;points=[[0,0.5],[1,0.5]];portConstraint=eastwest;whiteSpace=wrap;html=1;container=0;" parent="QaDs3v1icvES4gzAtx_r-29" vertex="1">
          <mxGeometry y="26" width="270" height="26" as="geometry" />
        </mxCell>
        <mxCell id="pJNRvae56pVTqdE-GDw2-122" value="" style="line;strokeWidth=1;fillColor=none;align=left;verticalAlign=middle;spacingTop=-1;spacingLeft=3;spacingRight=3;rotatable=0;labelPosition=right;points=[];portConstraint=eastwest;strokeColor=inherit;" vertex="1" parent="QaDs3v1icvES4gzAtx_r-29">
          <mxGeometry y="52" width="270" height="8" as="geometry" />
        </mxCell>
        <mxCell id="QaDs3v1icvES4gzAtx_r-30" value="- cars: List&amp;lt;Car&amp;gt;" style="text;strokeColor=none;fillColor=none;align=left;verticalAlign=top;spacingLeft=4;spacingRight=4;overflow=hidden;rotatable=0;points=[[0,0.5],[1,0.5]];portConstraint=eastwest;whiteSpace=wrap;html=1;container=0;" parent="QaDs3v1icvES4gzAtx_r-29" vertex="1">
          <mxGeometry y="60" width="270" height="26" as="geometry" />
        </mxCell>
        <mxCell id="QaDs3v1icvES4gzAtx_r-31" value="" style="line;strokeWidth=1;fillColor=none;align=left;verticalAlign=middle;spacingTop=-1;spacingLeft=3;spacingRight=3;rotatable=0;labelPosition=right;points=[];portConstraint=eastwest;strokeColor=inherit;container=0;" parent="QaDs3v1icvES4gzAtx_r-29" vertex="1">
          <mxGeometry y="86" width="270" height="8" as="geometry" />
        </mxCell>
        <mxCell id="QaDs3v1icvES4gzAtx_r-35" value="+ searchByKeyword (String): void" style="text;strokeColor=none;fillColor=none;align=left;verticalAlign=top;spacingLeft=4;spacingRight=4;overflow=hidden;rotatable=0;points=[[0,0.5],[1,0.5]];portConstraint=eastwest;whiteSpace=wrap;html=1;container=0;" parent="QaDs3v1icvES4gzAtx_r-29" vertex="1">
          <mxGeometry y="94" width="270" height="26" as="geometry" />
        </mxCell>
        <mxCell id="QaDs3v1icvES4gzAtx_r-37" value="+ DriverSearchService: class" style="swimlane;fontStyle=1;align=center;verticalAlign=top;childLayout=stackLayout;horizontal=1;startSize=26;horizontalStack=0;resizeParent=1;resizeParentMax=0;resizeLast=0;collapsible=1;marginBottom=0;whiteSpace=wrap;html=1;fillColor=#d80073;fontColor=#ffffff;strokeColor=#A50040;container=0;" parent="WIyWlLk6GJQsqaUBKTNV-1" vertex="1">
          <mxGeometry x="1180" y="1040" width="270" height="120" as="geometry" />
        </mxCell>
        <mxCell id="pJNRvae56pVTqdE-GDw2-121" value="+ DriverSearchService (List&amp;lt;Driver&amp;gt;):" style="text;strokeColor=none;fillColor=none;align=left;verticalAlign=top;spacingLeft=4;spacingRight=4;overflow=hidden;rotatable=0;points=[[0,0.5],[1,0.5]];portConstraint=eastwest;whiteSpace=wrap;html=1;" vertex="1" parent="QaDs3v1icvES4gzAtx_r-37">
          <mxGeometry y="26" width="270" height="26" as="geometry" />
        </mxCell>
        <mxCell id="pJNRvae56pVTqdE-GDw2-120" value="" style="line;strokeWidth=1;fillColor=none;align=left;verticalAlign=middle;spacingTop=-1;spacingLeft=3;spacingRight=3;rotatable=0;labelPosition=right;points=[];portConstraint=eastwest;strokeColor=inherit;" vertex="1" parent="QaDs3v1icvES4gzAtx_r-37">
          <mxGeometry y="52" width="270" height="8" as="geometry" />
        </mxCell>
        <mxCell id="QaDs3v1icvES4gzAtx_r-38" value="- drivers: List&amp;lt;Driver&amp;gt;" style="text;strokeColor=none;fillColor=none;align=left;verticalAlign=top;spacingLeft=4;spacingRight=4;overflow=hidden;rotatable=0;points=[[0,0.5],[1,0.5]];portConstraint=eastwest;whiteSpace=wrap;html=1;container=0;" parent="QaDs3v1icvES4gzAtx_r-37" vertex="1">
          <mxGeometry y="60" width="270" height="26" as="geometry" />
        </mxCell>
        <mxCell id="QaDs3v1icvES4gzAtx_r-39" value="" style="line;strokeWidth=1;fillColor=none;align=left;verticalAlign=middle;spacingTop=-1;spacingLeft=3;spacingRight=3;rotatable=0;labelPosition=right;points=[];portConstraint=eastwest;strokeColor=inherit;container=0;" parent="QaDs3v1icvES4gzAtx_r-37" vertex="1">
          <mxGeometry y="86" width="270" height="8" as="geometry" />
        </mxCell>
        <mxCell id="QaDs3v1icvES4gzAtx_r-41" value="+ searchByName (String): void" style="text;strokeColor=none;fillColor=none;align=left;verticalAlign=top;spacingLeft=4;spacingRight=4;overflow=hidden;rotatable=0;points=[[0,0.5],[1,0.5]];portConstraint=eastwest;whiteSpace=wrap;html=1;container=0;" parent="QaDs3v1icvES4gzAtx_r-37" vertex="1">
          <mxGeometry y="94" width="270" height="26" as="geometry" />
        </mxCell>
        <mxCell id="QaDs3v1icvES4gzAtx_r-42" value="+ LostAndFoundService: class" style="swimlane;fontStyle=1;align=center;verticalAlign=top;childLayout=stackLayout;horizontal=1;startSize=26;horizontalStack=0;resizeParent=1;resizeParentMax=0;resizeLast=0;collapsible=1;marginBottom=0;whiteSpace=wrap;html=1;fillColor=#d80073;fontColor=#ffffff;strokeColor=#A50040;container=0;" parent="WIyWlLk6GJQsqaUBKTNV-1" vertex="1">
          <mxGeometry x="875" y="501" width="220" height="190" as="geometry" />
        </mxCell>
        <mxCell id="QaDs3v1icvES4gzAtx_r-45" value="+ LostAndFoundService (&lt;span style=&quot;background-color: transparent; color: light-dark(rgb(0, 0, 0), rgb(255, 255, 255));&quot;&gt;List&amp;lt;Driver&amp;gt;,&amp;nbsp;&lt;/span&gt;&lt;span style=&quot;background-color: transparent; color: light-dark(rgb(0, 0, 0), rgb(255, 255, 255));&quot;&gt;List&amp;lt;Car&amp;gt;,&amp;nbsp;&lt;/span&gt;&lt;span style=&quot;background-color: transparent; color: light-dark(rgb(0, 0, 0), rgb(255, 255, 255));&quot;&gt;List&amp;lt;Trip&amp;gt;&lt;/span&gt;&lt;span style=&quot;background-color: transparent; color: light-dark(rgb(0, 0, 0), rgb(255, 255, 255));&quot;&gt;):&lt;/span&gt;" style="text;strokeColor=none;fillColor=none;align=left;verticalAlign=top;spacingLeft=4;spacingRight=4;overflow=hidden;rotatable=0;points=[[0,0.5],[1,0.5]];portConstraint=eastwest;whiteSpace=wrap;html=1;container=0;" parent="QaDs3v1icvES4gzAtx_r-42" vertex="1">
          <mxGeometry y="26" width="220" height="44" as="geometry" />
        </mxCell>
        <mxCell id="pJNRvae56pVTqdE-GDw2-133" value="" style="line;strokeWidth=1;fillColor=none;align=left;verticalAlign=middle;spacingTop=-1;spacingLeft=3;spacingRight=3;rotatable=0;labelPosition=right;points=[];portConstraint=eastwest;strokeColor=inherit;" vertex="1" parent="QaDs3v1icvES4gzAtx_r-42">
          <mxGeometry y="70" width="220" height="8" as="geometry" />
        </mxCell>
        <mxCell id="QaDs3v1icvES4gzAtx_r-43" value="- drivers: List&amp;lt;Driver&amp;gt;" style="text;strokeColor=none;fillColor=none;align=left;verticalAlign=top;spacingLeft=4;spacingRight=4;overflow=hidden;rotatable=0;points=[[0,0.5],[1,0.5]];portConstraint=eastwest;whiteSpace=wrap;html=1;container=0;" parent="QaDs3v1icvES4gzAtx_r-42" vertex="1">
          <mxGeometry y="78" width="220" height="26" as="geometry" />
        </mxCell>
        <mxCell id="QaDs3v1icvES4gzAtx_r-47" value="- cars: List&amp;lt;Car&amp;gt;" style="text;strokeColor=none;fillColor=none;align=left;verticalAlign=top;spacingLeft=4;spacingRight=4;overflow=hidden;rotatable=0;points=[[0,0.5],[1,0.5]];portConstraint=eastwest;whiteSpace=wrap;html=1;container=0;" parent="QaDs3v1icvES4gzAtx_r-42" vertex="1">
          <mxGeometry y="104" width="220" height="26" as="geometry" />
        </mxCell>
        <mxCell id="QaDs3v1icvES4gzAtx_r-48" value="- trips: List&amp;lt;Trip&amp;gt;" style="text;strokeColor=none;fillColor=none;align=left;verticalAlign=top;spacingLeft=4;spacingRight=4;overflow=hidden;rotatable=0;points=[[0,0.5],[1,0.5]];portConstraint=eastwest;whiteSpace=wrap;html=1;container=0;" parent="QaDs3v1icvES4gzAtx_r-42" vertex="1">
          <mxGeometry y="130" width="220" height="26" as="geometry" />
        </mxCell>
        <mxCell id="QaDs3v1icvES4gzAtx_r-44" value="" style="line;strokeWidth=1;fillColor=none;align=left;verticalAlign=middle;spacingTop=-1;spacingLeft=3;spacingRight=3;rotatable=0;labelPosition=right;points=[];portConstraint=eastwest;strokeColor=inherit;container=0;" parent="QaDs3v1icvES4gzAtx_r-42" vertex="1">
          <mxGeometry y="156" width="220" height="8" as="geometry" />
        </mxCell>
        <mxCell id="QaDs3v1icvES4gzAtx_r-49" value="+ findOtherDrivers (String): void" style="text;strokeColor=none;fillColor=none;align=left;verticalAlign=top;spacingLeft=4;spacingRight=4;overflow=hidden;rotatable=0;points=[[0,0.5],[1,0.5]];portConstraint=eastwest;whiteSpace=wrap;html=1;container=0;" parent="QaDs3v1icvES4gzAtx_r-42" vertex="1">
          <mxGeometry y="164" width="220" height="26" as="geometry" />
        </mxCell>
        <mxCell id="QaDs3v1icvES4gzAtx_r-50" value="+ RadarTrapService: class" style="swimlane;fontStyle=1;align=center;verticalAlign=top;childLayout=stackLayout;horizontal=1;startSize=26;horizontalStack=0;resizeParent=1;resizeParentMax=0;resizeLast=0;collapsible=1;marginBottom=0;whiteSpace=wrap;html=1;fillColor=#d80073;fontColor=#ffffff;strokeColor=#A50040;container=0;" parent="WIyWlLk6GJQsqaUBKTNV-1" vertex="1">
          <mxGeometry x="1230" y="519" width="310" height="172" as="geometry" />
        </mxCell>
        <mxCell id="pJNRvae56pVTqdE-GDw2-132" value="+ RadarTrapService (List&amp;lt;Driver&amp;gt;, List&amp;lt;Car&amp;gt;, List&amp;lt;Trip&amp;gt;):" style="text;strokeColor=none;fillColor=none;align=left;verticalAlign=top;spacingLeft=4;spacingRight=4;overflow=hidden;rotatable=0;points=[[0,0.5],[1,0.5]];portConstraint=eastwest;whiteSpace=wrap;html=1;" vertex="1" parent="QaDs3v1icvES4gzAtx_r-50">
          <mxGeometry y="26" width="310" height="26" as="geometry" />
        </mxCell>
        <mxCell id="QaDs3v1icvES4gzAtx_r-54" value="" style="line;strokeWidth=1;fillColor=none;align=left;verticalAlign=middle;spacingTop=-1;spacingLeft=3;spacingRight=3;rotatable=0;labelPosition=right;points=[];portConstraint=eastwest;strokeColor=inherit;container=0;" parent="QaDs3v1icvES4gzAtx_r-50" vertex="1">
          <mxGeometry y="52" width="310" height="8" as="geometry" />
        </mxCell>
        <mxCell id="QaDs3v1icvES4gzAtx_r-51" value="- drivers: List&amp;lt;Driver&amp;gt;" style="text;strokeColor=none;fillColor=none;align=left;verticalAlign=top;spacingLeft=4;spacingRight=4;overflow=hidden;rotatable=0;points=[[0,0.5],[1,0.5]];portConstraint=eastwest;whiteSpace=wrap;html=1;container=0;" parent="QaDs3v1icvES4gzAtx_r-50" vertex="1">
          <mxGeometry y="60" width="310" height="26" as="geometry" />
        </mxCell>
        <mxCell id="QaDs3v1icvES4gzAtx_r-52" value="- cars List&amp;lt;Car&amp;gt;" style="text;strokeColor=none;fillColor=none;align=left;verticalAlign=top;spacingLeft=4;spacingRight=4;overflow=hidden;rotatable=0;points=[[0,0.5],[1,0.5]];portConstraint=eastwest;whiteSpace=wrap;html=1;container=0;" parent="QaDs3v1icvES4gzAtx_r-50" vertex="1">
          <mxGeometry y="86" width="310" height="26" as="geometry" />
        </mxCell>
        <mxCell id="QaDs3v1icvES4gzAtx_r-53" value="- trips: List&amp;lt;Trip&amp;gt;" style="text;strokeColor=none;fillColor=none;align=left;verticalAlign=top;spacingLeft=4;spacingRight=4;overflow=hidden;rotatable=0;points=[[0,0.5],[1,0.5]];portConstraint=eastwest;whiteSpace=wrap;html=1;container=0;" parent="QaDs3v1icvES4gzAtx_r-50" vertex="1">
          <mxGeometry y="112" width="310" height="26" as="geometry" />
        </mxCell>
        <mxCell id="pJNRvae56pVTqdE-GDw2-130" value="" style="line;strokeWidth=1;fillColor=none;align=left;verticalAlign=middle;spacingTop=-1;spacingLeft=3;spacingRight=3;rotatable=0;labelPosition=right;points=[];portConstraint=eastwest;strokeColor=inherit;" vertex="1" parent="QaDs3v1icvES4gzAtx_r-50">
          <mxGeometry y="138" width="310" height="8" as="geometry" />
        </mxCell>
        <mxCell id="QaDs3v1icvES4gzAtx_r-56" value="+ findDriverAtTime (input: String): void" style="text;strokeColor=none;fillColor=none;align=left;verticalAlign=top;spacingLeft=4;spacingRight=4;overflow=hidden;rotatable=0;points=[[0,0.5],[1,0.5]];portConstraint=eastwest;whiteSpace=wrap;html=1;container=0;" parent="QaDs3v1icvES4gzAtx_r-50" vertex="1">
          <mxGeometry y="146" width="310" height="26" as="geometry" />
        </mxCell>
        <mxCell id="QaDs3v1icvES4gzAtx_r-57" value="&lt;div&gt;&lt;i style=&quot;font-weight: normal;&quot;&gt;&amp;lt;&amp;lt;record&amp;gt;&amp;gt;&lt;/i&gt;&lt;/div&gt;Driver" style="swimlane;fontStyle=1;align=center;verticalAlign=top;childLayout=stackLayout;horizontal=1;startSize=43;horizontalStack=0;resizeParent=1;resizeParentMax=0;resizeLast=0;collapsible=1;marginBottom=0;whiteSpace=wrap;html=1;fillColor=#60a917;fontColor=#ffffff;strokeColor=#2D7600;container=0;" parent="WIyWlLk6GJQsqaUBKTNV-1" vertex="1">
          <mxGeometry x="260" y="535" width="270" height="345" as="geometry" />
        </mxCell>
        <mxCell id="pJNRvae56pVTqdE-GDw2-150" value="+ Driver (String, String, String, LicenseClass):" style="text;strokeColor=none;fillColor=none;align=left;verticalAlign=top;spacingLeft=4;spacingRight=4;overflow=hidden;rotatable=0;points=[[0,0.5],[1,0.5]];portConstraint=eastwest;whiteSpace=wrap;html=1;" vertex="1" parent="QaDs3v1icvES4gzAtx_r-57">
          <mxGeometry y="43" width="270" height="26" as="geometry" />
        </mxCell>
        <mxCell id="QaDs3v1icvES4gzAtx_r-59" value="" style="line;strokeWidth=1;fillColor=none;align=left;verticalAlign=middle;spacingTop=-1;spacingLeft=3;spacingRight=3;rotatable=0;labelPosition=right;points=[];portConstraint=eastwest;strokeColor=inherit;container=0;" parent="QaDs3v1icvES4gzAtx_r-57" vertex="1">
          <mxGeometry y="69" width="270" height="8" as="geometry" />
        </mxCell>
        <mxCell id="QaDs3v1icvES4gzAtx_r-63" value="- id: String" style="text;strokeColor=none;fillColor=none;align=left;verticalAlign=top;spacingLeft=4;spacingRight=4;overflow=hidden;rotatable=0;points=[[0,0.5],[1,0.5]];portConstraint=eastwest;whiteSpace=wrap;html=1;container=0;" parent="QaDs3v1icvES4gzAtx_r-57" vertex="1">
          <mxGeometry y="77" width="270" height="26" as="geometry" />
        </mxCell>
        <mxCell id="QaDs3v1icvES4gzAtx_r-61" value="- lastName: String" style="text;strokeColor=none;fillColor=none;align=left;verticalAlign=top;spacingLeft=4;spacingRight=4;overflow=hidden;rotatable=0;points=[[0,0.5],[1,0.5]];portConstraint=eastwest;whiteSpace=wrap;html=1;container=0;" parent="QaDs3v1icvES4gzAtx_r-57" vertex="1">
          <mxGeometry y="103" width="270" height="26" as="geometry" />
        </mxCell>
        <mxCell id="QaDs3v1icvES4gzAtx_r-64" value="- firstName: String" style="text;strokeColor=none;fillColor=none;align=left;verticalAlign=top;spacingLeft=4;spacingRight=4;overflow=hidden;rotatable=0;points=[[0,0.5],[1,0.5]];portConstraint=eastwest;whiteSpace=wrap;html=1;container=0;" parent="QaDs3v1icvES4gzAtx_r-57" vertex="1">
          <mxGeometry y="129" width="270" height="26" as="geometry" />
        </mxCell>
        <mxCell id="QaDs3v1icvES4gzAtx_r-62" value="- licenseClass&lt;span style=&quot;background-color: transparent; color: light-dark(rgb(0, 0, 0), rgb(255, 255, 255));&quot;&gt;: LicenseClass&lt;/span&gt;" style="text;strokeColor=none;fillColor=none;align=left;verticalAlign=top;spacingLeft=4;spacingRight=4;overflow=hidden;rotatable=0;points=[[0,0.5],[1,0.5]];portConstraint=eastwest;whiteSpace=wrap;html=1;container=0;" parent="QaDs3v1icvES4gzAtx_r-57" vertex="1">
          <mxGeometry y="155" width="270" height="26" as="geometry" />
        </mxCell>
        <mxCell id="pJNRvae56pVTqdE-GDw2-152" value="" style="line;strokeWidth=1;fillColor=none;align=left;verticalAlign=middle;spacingTop=-1;spacingLeft=3;spacingRight=3;rotatable=0;labelPosition=right;points=[];portConstraint=eastwest;strokeColor=inherit;" vertex="1" parent="QaDs3v1icvES4gzAtx_r-57">
          <mxGeometry y="181" width="270" height="8" as="geometry" />
        </mxCell>
        <mxCell id="QaDs3v1icvES4gzAtx_r-79" value="+ getFullName (): String" style="text;strokeColor=none;fillColor=none;align=left;verticalAlign=top;spacingLeft=4;spacingRight=4;overflow=hidden;rotatable=0;points=[[0,0.5],[1,0.5]];portConstraint=eastwest;whiteSpace=wrap;html=1;container=0;" parent="QaDs3v1icvES4gzAtx_r-57" vertex="1">
          <mxGeometry y="189" width="270" height="26" as="geometry" />
        </mxCell>
        <mxCell id="QaDs3v1icvES4gzAtx_r-60" value="+ toString (): String" style="text;strokeColor=none;fillColor=none;align=left;verticalAlign=top;spacingLeft=4;spacingRight=4;overflow=hidden;rotatable=0;points=[[0,0.5],[1,0.5]];portConstraint=eastwest;whiteSpace=wrap;html=1;container=0;" parent="QaDs3v1icvES4gzAtx_r-57" vertex="1">
          <mxGeometry y="215" width="270" height="26" as="geometry" />
        </mxCell>
        <mxCell id="pJNRvae56pVTqdE-GDw2-153" value="+ id (): String" style="text;strokeColor=none;fillColor=none;align=left;verticalAlign=top;spacingLeft=4;spacingRight=4;overflow=hidden;rotatable=0;points=[[0,0.5],[1,0.5]];portConstraint=eastwest;whiteSpace=wrap;html=1;" vertex="1" parent="QaDs3v1icvES4gzAtx_r-57">
          <mxGeometry y="241" width="270" height="26" as="geometry" />
        </mxCell>
        <mxCell id="pJNRvae56pVTqdE-GDw2-154" value="+ lastName (): String" style="text;strokeColor=none;fillColor=none;align=left;verticalAlign=top;spacingLeft=4;spacingRight=4;overflow=hidden;rotatable=0;points=[[0,0.5],[1,0.5]];portConstraint=eastwest;whiteSpace=wrap;html=1;" vertex="1" parent="QaDs3v1icvES4gzAtx_r-57">
          <mxGeometry y="267" width="270" height="26" as="geometry" />
        </mxCell>
        <mxCell id="pJNRvae56pVTqdE-GDw2-155" value="+ firstName (): String" style="text;strokeColor=none;fillColor=none;align=left;verticalAlign=top;spacingLeft=4;spacingRight=4;overflow=hidden;rotatable=0;points=[[0,0.5],[1,0.5]];portConstraint=eastwest;whiteSpace=wrap;html=1;" vertex="1" parent="QaDs3v1icvES4gzAtx_r-57">
          <mxGeometry y="293" width="270" height="26" as="geometry" />
        </mxCell>
        <mxCell id="pJNRvae56pVTqdE-GDw2-156" value="+ licenseClass(): LicenseClass" style="text;strokeColor=none;fillColor=none;align=left;verticalAlign=top;spacingLeft=4;spacingRight=4;overflow=hidden;rotatable=0;points=[[0,0.5],[1,0.5]];portConstraint=eastwest;whiteSpace=wrap;html=1;" vertex="1" parent="QaDs3v1icvES4gzAtx_r-57">
          <mxGeometry y="319" width="270" height="26" as="geometry" />
        </mxCell>
        <mxCell id="QaDs3v1icvES4gzAtx_r-65" value="&lt;div&gt;&amp;lt;&amp;lt;record&amp;gt;&amp;gt;&lt;/div&gt;Car" style="swimlane;fontStyle=1;align=center;verticalAlign=top;childLayout=stackLayout;horizontal=1;startSize=45;horizontalStack=0;resizeParent=1;resizeParentMax=0;resizeLast=0;collapsible=1;marginBottom=0;whiteSpace=wrap;html=1;fillColor=#60a917;fontColor=#ffffff;strokeColor=#2D7600;container=0;" parent="WIyWlLk6GJQsqaUBKTNV-1" vertex="1">
          <mxGeometry x="550" y="552" width="200" height="321" as="geometry" />
        </mxCell>
        <mxCell id="pJNRvae56pVTqdE-GDw2-157" value="+ Car (String, String, String, String):" style="text;strokeColor=none;fillColor=none;align=left;verticalAlign=top;spacingLeft=4;spacingRight=4;overflow=hidden;rotatable=0;points=[[0,0.5],[1,0.5]];portConstraint=eastwest;whiteSpace=wrap;html=1;" vertex="1" parent="QaDs3v1icvES4gzAtx_r-65">
          <mxGeometry y="45" width="200" height="26" as="geometry" />
        </mxCell>
        <mxCell id="QaDs3v1icvES4gzAtx_r-70" value="" style="line;strokeWidth=1;fillColor=none;align=left;verticalAlign=middle;spacingTop=-1;spacingLeft=3;spacingRight=3;rotatable=0;labelPosition=right;points=[];portConstraint=eastwest;strokeColor=inherit;container=0;" parent="QaDs3v1icvES4gzAtx_r-65" vertex="1">
          <mxGeometry y="71" width="200" height="8" as="geometry" />
        </mxCell>
        <mxCell id="QaDs3v1icvES4gzAtx_r-66" value="- id: String" style="text;strokeColor=none;fillColor=none;align=left;verticalAlign=top;spacingLeft=4;spacingRight=4;overflow=hidden;rotatable=0;points=[[0,0.5],[1,0.5]];portConstraint=eastwest;whiteSpace=wrap;html=1;container=0;" parent="QaDs3v1icvES4gzAtx_r-65" vertex="1">
          <mxGeometry y="79" width="200" height="26" as="geometry" />
        </mxCell>
        <mxCell id="QaDs3v1icvES4gzAtx_r-67" value="- manufacturer: String" style="text;strokeColor=none;fillColor=none;align=left;verticalAlign=top;spacingLeft=4;spacingRight=4;overflow=hidden;rotatable=0;points=[[0,0.5],[1,0.5]];portConstraint=eastwest;whiteSpace=wrap;html=1;container=0;" parent="QaDs3v1icvES4gzAtx_r-65" vertex="1">
          <mxGeometry y="105" width="200" height="26" as="geometry" />
        </mxCell>
        <mxCell id="QaDs3v1icvES4gzAtx_r-69" value="- licensePlate: String" style="text;strokeColor=none;fillColor=none;align=left;verticalAlign=top;spacingLeft=4;spacingRight=4;overflow=hidden;rotatable=0;points=[[0,0.5],[1,0.5]];portConstraint=eastwest;whiteSpace=wrap;html=1;container=0;" parent="QaDs3v1icvES4gzAtx_r-65" vertex="1">
          <mxGeometry y="131" width="200" height="26" as="geometry" />
        </mxCell>
        <mxCell id="QaDs3v1icvES4gzAtx_r-68" value="- model: String" style="text;strokeColor=none;fillColor=none;align=left;verticalAlign=top;spacingLeft=4;spacingRight=4;overflow=hidden;rotatable=0;points=[[0,0.5],[1,0.5]];portConstraint=eastwest;whiteSpace=wrap;html=1;container=0;" parent="QaDs3v1icvES4gzAtx_r-65" vertex="1">
          <mxGeometry y="157" width="200" height="26" as="geometry" />
        </mxCell>
        <mxCell id="pJNRvae56pVTqdE-GDw2-158" value="" style="line;strokeWidth=1;fillColor=none;align=left;verticalAlign=middle;spacingTop=-1;spacingLeft=3;spacingRight=3;rotatable=0;labelPosition=right;points=[];portConstraint=eastwest;strokeColor=inherit;" vertex="1" parent="QaDs3v1icvES4gzAtx_r-65">
          <mxGeometry y="183" width="200" height="8" as="geometry" />
        </mxCell>
        <mxCell id="pJNRvae56pVTqdE-GDw2-159" value="+ id(): String" style="text;strokeColor=none;fillColor=none;align=left;verticalAlign=top;spacingLeft=4;spacingRight=4;overflow=hidden;rotatable=0;points=[[0,0.5],[1,0.5]];portConstraint=eastwest;whiteSpace=wrap;html=1;" vertex="1" parent="QaDs3v1icvES4gzAtx_r-65">
          <mxGeometry y="191" width="200" height="26" as="geometry" />
        </mxCell>
        <mxCell id="pJNRvae56pVTqdE-GDw2-165" value="+ manufracturer(): String" style="text;strokeColor=none;fillColor=none;align=left;verticalAlign=top;spacingLeft=4;spacingRight=4;overflow=hidden;rotatable=0;points=[[0,0.5],[1,0.5]];portConstraint=eastwest;whiteSpace=wrap;html=1;" vertex="1" parent="QaDs3v1icvES4gzAtx_r-65">
          <mxGeometry y="217" width="200" height="26" as="geometry" />
        </mxCell>
        <mxCell id="pJNRvae56pVTqdE-GDw2-166" value="+ licensePlate(): String" style="text;strokeColor=none;fillColor=none;align=left;verticalAlign=top;spacingLeft=4;spacingRight=4;overflow=hidden;rotatable=0;points=[[0,0.5],[1,0.5]];portConstraint=eastwest;whiteSpace=wrap;html=1;" vertex="1" parent="QaDs3v1icvES4gzAtx_r-65">
          <mxGeometry y="243" width="200" height="26" as="geometry" />
        </mxCell>
        <mxCell id="pJNRvae56pVTqdE-GDw2-160" value="+ model (): String" style="text;strokeColor=none;fillColor=none;align=left;verticalAlign=top;spacingLeft=4;spacingRight=4;overflow=hidden;rotatable=0;points=[[0,0.5],[1,0.5]];portConstraint=eastwest;whiteSpace=wrap;html=1;" vertex="1" parent="QaDs3v1icvES4gzAtx_r-65">
          <mxGeometry y="269" width="200" height="26" as="geometry" />
        </mxCell>
        <mxCell id="QaDs3v1icvES4gzAtx_r-71" value="+ toString (): String" style="text;strokeColor=none;fillColor=none;align=left;verticalAlign=top;spacingLeft=4;spacingRight=4;overflow=hidden;rotatable=0;points=[[0,0.5],[1,0.5]];portConstraint=eastwest;whiteSpace=wrap;html=1;container=0;" parent="QaDs3v1icvES4gzAtx_r-65" vertex="1">
          <mxGeometry y="295" width="200" height="26" as="geometry" />
        </mxCell>
        <mxCell id="QaDs3v1icvES4gzAtx_r-72" value="&lt;i style=&quot;font-weight: normal;&quot;&gt;&amp;lt;&amp;lt;record&amp;gt;&amp;gt;&lt;/i&gt;&lt;div&gt;Trip&lt;/div&gt;" style="swimlane;fontStyle=1;align=center;verticalAlign=top;childLayout=stackLayout;horizontal=1;startSize=43;horizontalStack=0;resizeParent=1;resizeParentMax=0;resizeLast=0;collapsible=1;marginBottom=0;whiteSpace=wrap;html=1;fillColor=#60a917;fontColor=#ffffff;strokeColor=#2D7600;container=0;" parent="WIyWlLk6GJQsqaUBKTNV-1" vertex="1">
          <mxGeometry x="-180" y="501" width="337" height="527" as="geometry">
            <mxRectangle x="87" y="527" width="60" height="30" as="alternateBounds" />
          </mxGeometry>
        </mxCell>
        <mxCell id="pJNRvae56pVTqdE-GDw2-142" value="+ Trip (String, String, int, int, LocalDateTime, LocalDateTime):" style="text;strokeColor=none;fillColor=none;align=left;verticalAlign=top;spacingLeft=4;spacingRight=4;overflow=hidden;rotatable=0;points=[[0,0.5],[1,0.5]];portConstraint=eastwest;whiteSpace=wrap;html=1;" vertex="1" parent="QaDs3v1icvES4gzAtx_r-72">
          <mxGeometry y="43" width="337" height="26" as="geometry" />
        </mxCell>
        <mxCell id="pJNRvae56pVTqdE-GDw2-141" value="" style="line;strokeWidth=1;fillColor=none;align=left;verticalAlign=middle;spacingTop=-1;spacingLeft=3;spacingRight=3;rotatable=0;labelPosition=right;points=[];portConstraint=eastwest;strokeColor=inherit;" vertex="1" parent="QaDs3v1icvES4gzAtx_r-72">
          <mxGeometry y="69" width="337" height="8" as="geometry" />
        </mxCell>
        <mxCell id="QaDs3v1icvES4gzAtx_r-73" value="- driverId: String" style="text;strokeColor=none;fillColor=none;align=left;verticalAlign=top;spacingLeft=4;spacingRight=4;overflow=hidden;rotatable=0;points=[[0,0.5],[1,0.5]];portConstraint=eastwest;whiteSpace=wrap;html=1;container=0;" parent="QaDs3v1icvES4gzAtx_r-72" vertex="1">
          <mxGeometry y="77" width="337" height="26" as="geometry" />
        </mxCell>
        <mxCell id="QaDs3v1icvES4gzAtx_r-74" value="- carId: String" style="text;strokeColor=none;fillColor=none;align=left;verticalAlign=top;spacingLeft=4;spacingRight=4;overflow=hidden;rotatable=0;points=[[0,0.5],[1,0.5]];portConstraint=eastwest;whiteSpace=wrap;html=1;container=0;" parent="QaDs3v1icvES4gzAtx_r-72" vertex="1">
          <mxGeometry y="103" width="337" height="26" as="geometry" />
        </mxCell>
        <mxCell id="QaDs3v1icvES4gzAtx_r-75" value="- startKm: Int" style="text;strokeColor=none;fillColor=none;align=left;verticalAlign=top;spacingLeft=4;spacingRight=4;overflow=hidden;rotatable=0;points=[[0,0.5],[1,0.5]];portConstraint=eastwest;whiteSpace=wrap;html=1;container=0;" parent="QaDs3v1icvES4gzAtx_r-72" vertex="1">
          <mxGeometry y="129" width="337" height="26" as="geometry" />
        </mxCell>
        <mxCell id="QaDs3v1icvES4gzAtx_r-76" value="- endKm: Int" style="text;strokeColor=none;fillColor=none;align=left;verticalAlign=top;spacingLeft=4;spacingRight=4;overflow=hidden;rotatable=0;points=[[0,0.5],[1,0.5]];portConstraint=eastwest;whiteSpace=wrap;html=1;container=0;" parent="QaDs3v1icvES4gzAtx_r-72" vertex="1">
          <mxGeometry y="155" width="337" height="26" as="geometry" />
        </mxCell>
        <mxCell id="QaDs3v1icvES4gzAtx_r-81" value="- endTime: LocalDateTime" style="text;strokeColor=none;fillColor=none;align=left;verticalAlign=top;spacingLeft=4;spacingRight=4;overflow=hidden;rotatable=0;points=[[0,0.5],[1,0.5]];portConstraint=eastwest;whiteSpace=wrap;html=1;container=0;" parent="QaDs3v1icvES4gzAtx_r-72" vertex="1">
          <mxGeometry y="181" width="337" height="26" as="geometry" />
        </mxCell>
        <mxCell id="QaDs3v1icvES4gzAtx_r-80" value="- startTime: LocalDateTime" style="text;strokeColor=none;fillColor=none;align=left;verticalAlign=top;spacingLeft=4;spacingRight=4;overflow=hidden;rotatable=0;points=[[0,0.5],[1,0.5]];portConstraint=eastwest;whiteSpace=wrap;html=1;container=0;" parent="QaDs3v1icvES4gzAtx_r-72" vertex="1">
          <mxGeometry y="207" width="337" height="26" as="geometry" />
        </mxCell>
        <mxCell id="QaDs3v1icvES4gzAtx_r-77" value="" style="line;strokeWidth=1;fillColor=none;align=left;verticalAlign=middle;spacingTop=-1;spacingLeft=3;spacingRight=3;rotatable=0;labelPosition=right;points=[];portConstraint=eastwest;strokeColor=inherit;container=0;" parent="QaDs3v1icvES4gzAtx_r-72" vertex="1">
          <mxGeometry y="233" width="337" height="8" as="geometry" />
        </mxCell>
        <mxCell id="QaDs3v1icvES4gzAtx_r-78" value="+ toString (): String" style="text;strokeColor=none;fillColor=none;align=left;verticalAlign=top;spacingLeft=4;spacingRight=4;overflow=hidden;rotatable=0;points=[[0,0.5],[1,0.5]];portConstraint=eastwest;whiteSpace=wrap;html=1;container=0;" parent="QaDs3v1icvES4gzAtx_r-72" vertex="1">
          <mxGeometry y="241" width="337" height="26" as="geometry" />
        </mxCell>
        <mxCell id="QaDs3v1icvES4gzAtx_r-85" value="+ overlapsWithDate (LocalDate): boolean" style="text;strokeColor=none;fillColor=none;align=left;verticalAlign=top;spacingLeft=4;spacingRight=4;overflow=hidden;rotatable=0;points=[[0,0.5],[1,0.5]];portConstraint=eastwest;whiteSpace=wrap;html=1;container=0;" parent="QaDs3v1icvES4gzAtx_r-72" vertex="1">
          <mxGeometry y="267" width="337" height="26" as="geometry" />
        </mxCell>
        <mxCell id="QaDs3v1icvES4gzAtx_r-84" value="+ includesTime (LocalDateTime): boolean" style="text;strokeColor=none;fillColor=none;align=left;verticalAlign=top;spacingLeft=4;spacingRight=4;overflow=hidden;rotatable=0;points=[[0,0.5],[1,0.5]];portConstraint=eastwest;whiteSpace=wrap;html=1;container=0;" parent="QaDs3v1icvES4gzAtx_r-72" vertex="1">
          <mxGeometry y="293" width="337" height="26" as="geometry" />
        </mxCell>
        <mxCell id="QaDs3v1icvES4gzAtx_r-83" value="+ getDuration (): Duration" style="text;strokeColor=none;fillColor=none;align=left;verticalAlign=top;spacingLeft=4;spacingRight=4;overflow=hidden;rotatable=0;points=[[0,0.5],[1,0.5]];portConstraint=eastwest;whiteSpace=wrap;html=1;container=0;" parent="QaDs3v1icvES4gzAtx_r-72" vertex="1">
          <mxGeometry y="319" width="337" height="26" as="geometry" />
        </mxCell>
        <mxCell id="QaDs3v1icvES4gzAtx_r-82" value="+ getDistance (): Long" style="text;strokeColor=none;fillColor=none;align=left;verticalAlign=top;spacingLeft=4;spacingRight=4;overflow=hidden;rotatable=0;points=[[0,0.5],[1,0.5]];portConstraint=eastwest;whiteSpace=wrap;html=1;container=0;" parent="QaDs3v1icvES4gzAtx_r-72" vertex="1">
          <mxGeometry y="345" width="337" height="26" as="geometry" />
        </mxCell>
        <mxCell id="pJNRvae56pVTqdE-GDw2-145" value="+ carId (): String" style="text;strokeColor=none;fillColor=none;align=left;verticalAlign=top;spacingLeft=4;spacingRight=4;overflow=hidden;rotatable=0;points=[[0,0.5],[1,0.5]];portConstraint=eastwest;whiteSpace=wrap;html=1;" vertex="1" parent="QaDs3v1icvES4gzAtx_r-72">
          <mxGeometry y="371" width="337" height="26" as="geometry" />
        </mxCell>
        <mxCell id="pJNRvae56pVTqdE-GDw2-146" value="+ driverId (): String" style="text;strokeColor=none;fillColor=none;align=left;verticalAlign=top;spacingLeft=4;spacingRight=4;overflow=hidden;rotatable=0;points=[[0,0.5],[1,0.5]];portConstraint=eastwest;whiteSpace=wrap;html=1;" vertex="1" parent="QaDs3v1icvES4gzAtx_r-72">
          <mxGeometry y="397" width="337" height="26" as="geometry" />
        </mxCell>
        <mxCell id="pJNRvae56pVTqdE-GDw2-143" value="+ endKm (): int" style="text;strokeColor=none;fillColor=none;align=left;verticalAlign=top;spacingLeft=4;spacingRight=4;overflow=hidden;rotatable=0;points=[[0,0.5],[1,0.5]];portConstraint=eastwest;whiteSpace=wrap;html=1;" vertex="1" parent="QaDs3v1icvES4gzAtx_r-72">
          <mxGeometry y="423" width="337" height="26" as="geometry" />
        </mxCell>
        <mxCell id="pJNRvae56pVTqdE-GDw2-144" value="+ startKm (): int" style="text;strokeColor=none;fillColor=none;align=left;verticalAlign=top;spacingLeft=4;spacingRight=4;overflow=hidden;rotatable=0;points=[[0,0.5],[1,0.5]];portConstraint=eastwest;whiteSpace=wrap;html=1;" vertex="1" parent="QaDs3v1icvES4gzAtx_r-72">
          <mxGeometry y="449" width="337" height="26" as="geometry" />
        </mxCell>
        <mxCell id="pJNRvae56pVTqdE-GDw2-147" value="+ endTime (): LocalDateTime" style="text;strokeColor=none;fillColor=none;align=left;verticalAlign=top;spacingLeft=4;spacingRight=4;overflow=hidden;rotatable=0;points=[[0,0.5],[1,0.5]];portConstraint=eastwest;whiteSpace=wrap;html=1;" vertex="1" parent="QaDs3v1icvES4gzAtx_r-72">
          <mxGeometry y="475" width="337" height="26" as="geometry" />
        </mxCell>
        <mxCell id="pJNRvae56pVTqdE-GDw2-149" value="+ startTime (): LocalDateTime" style="text;strokeColor=none;fillColor=none;align=left;verticalAlign=top;spacingLeft=4;spacingRight=4;overflow=hidden;rotatable=0;points=[[0,0.5],[1,0.5]];portConstraint=eastwest;whiteSpace=wrap;html=1;" vertex="1" parent="QaDs3v1icvES4gzAtx_r-72">
          <mxGeometry y="501" width="337" height="26" as="geometry" />
        </mxCell>
        <mxCell id="QaDs3v1icvES4gzAtx_r-86" value="&lt;div&gt;&lt;i&gt;&amp;lt;&amp;lt;enum&amp;gt;&amp;gt;&lt;/i&gt;&lt;/div&gt;LicenseClass" style="swimlane;fontStyle=1;align=center;verticalAlign=top;childLayout=stackLayout;horizontal=1;startSize=43;horizontalStack=0;resizeParent=1;resizeParentMax=0;resizeLast=0;collapsible=1;marginBottom=0;whiteSpace=wrap;html=1;fillColor=#008a00;fontColor=#ffffff;strokeColor=#005700;container=0;" parent="WIyWlLk6GJQsqaUBKTNV-1" vertex="1">
          <mxGeometry x="510" y="1040" width="240" height="423" as="geometry" />
        </mxCell>
        <mxCell id="pJNRvae56pVTqdE-GDw2-176" value="+ LicenseClass ():" style="text;strokeColor=none;fillColor=none;align=left;verticalAlign=top;spacingLeft=4;spacingRight=4;overflow=hidden;rotatable=0;points=[[0,0.5],[1,0.5]];portConstraint=eastwest;whiteSpace=wrap;html=1;" vertex="1" parent="QaDs3v1icvES4gzAtx_r-86">
          <mxGeometry y="43" width="240" height="26" as="geometry" />
        </mxCell>
        <mxCell id="pJNRvae56pVTqdE-GDw2-167" value="" style="line;strokeWidth=1;fillColor=none;align=left;verticalAlign=middle;spacingTop=-1;spacingLeft=3;spacingRight=3;rotatable=0;labelPosition=right;points=[];portConstraint=eastwest;strokeColor=inherit;" vertex="1" parent="QaDs3v1icvES4gzAtx_r-86">
          <mxGeometry y="69" width="240" height="8" as="geometry" />
        </mxCell>
        <mxCell id="pJNRvae56pVTqdE-GDw2-175" value="+ D:" style="text;strokeColor=none;fillColor=none;align=left;verticalAlign=top;spacingLeft=4;spacingRight=4;overflow=hidden;rotatable=0;points=[[0,0.5],[1,0.5]];portConstraint=eastwest;whiteSpace=wrap;html=1;" vertex="1" parent="QaDs3v1icvES4gzAtx_r-86">
          <mxGeometry y="77" width="240" height="26" as="geometry" />
        </mxCell>
        <mxCell id="pJNRvae56pVTqdE-GDw2-174" value="+ A:" style="text;strokeColor=none;fillColor=none;align=left;verticalAlign=top;spacingLeft=4;spacingRight=4;overflow=hidden;rotatable=0;points=[[0,0.5],[1,0.5]];portConstraint=eastwest;whiteSpace=wrap;html=1;" vertex="1" parent="QaDs3v1icvES4gzAtx_r-86">
          <mxGeometry y="103" width="240" height="26" as="geometry" />
        </mxCell>
        <mxCell id="pJNRvae56pVTqdE-GDw2-173" value="+ B:" style="text;strokeColor=none;fillColor=none;align=left;verticalAlign=top;spacingLeft=4;spacingRight=4;overflow=hidden;rotatable=0;points=[[0,0.5],[1,0.5]];portConstraint=eastwest;whiteSpace=wrap;html=1;" vertex="1" parent="QaDs3v1icvES4gzAtx_r-86">
          <mxGeometry y="129" width="240" height="26" as="geometry" />
        </mxCell>
        <mxCell id="pJNRvae56pVTqdE-GDw2-172" value="+ A2:" style="text;strokeColor=none;fillColor=none;align=left;verticalAlign=top;spacingLeft=4;spacingRight=4;overflow=hidden;rotatable=0;points=[[0,0.5],[1,0.5]];portConstraint=eastwest;whiteSpace=wrap;html=1;" vertex="1" parent="QaDs3v1icvES4gzAtx_r-86">
          <mxGeometry y="155" width="240" height="26" as="geometry" />
        </mxCell>
        <mxCell id="pJNRvae56pVTqdE-GDw2-171" value="+ DE:" style="text;strokeColor=none;fillColor=none;align=left;verticalAlign=top;spacingLeft=4;spacingRight=4;overflow=hidden;rotatable=0;points=[[0,0.5],[1,0.5]];portConstraint=eastwest;whiteSpace=wrap;html=1;" vertex="1" parent="QaDs3v1icvES4gzAtx_r-86">
          <mxGeometry y="181" width="240" height="26" as="geometry" />
        </mxCell>
        <mxCell id="pJNRvae56pVTqdE-GDw2-170" value="+ AM:" style="text;strokeColor=none;fillColor=none;align=left;verticalAlign=top;spacingLeft=4;spacingRight=4;overflow=hidden;rotatable=0;points=[[0,0.5],[1,0.5]];portConstraint=eastwest;whiteSpace=wrap;html=1;" vertex="1" parent="QaDs3v1icvES4gzAtx_r-86">
          <mxGeometry y="207" width="240" height="26" as="geometry" />
        </mxCell>
        <mxCell id="pJNRvae56pVTqdE-GDw2-169" value="+ C:" style="text;strokeColor=none;fillColor=none;align=left;verticalAlign=top;spacingLeft=4;spacingRight=4;overflow=hidden;rotatable=0;points=[[0,0.5],[1,0.5]];portConstraint=eastwest;whiteSpace=wrap;html=1;" vertex="1" parent="QaDs3v1icvES4gzAtx_r-86">
          <mxGeometry y="233" width="240" height="26" as="geometry" />
        </mxCell>
        <mxCell id="pJNRvae56pVTqdE-GDw2-168" value="+ CE" style="text;strokeColor=none;fillColor=none;align=left;verticalAlign=top;spacingLeft=4;spacingRight=4;overflow=hidden;rotatable=0;points=[[0,0.5],[1,0.5]];portConstraint=eastwest;whiteSpace=wrap;html=1;" vertex="1" parent="QaDs3v1icvES4gzAtx_r-86">
          <mxGeometry y="259" width="240" height="26" as="geometry" />
        </mxCell>
        <mxCell id="pJNRvae56pVTqdE-GDw2-178" value="+ BE:" style="text;strokeColor=none;fillColor=none;align=left;verticalAlign=top;spacingLeft=4;spacingRight=4;overflow=hidden;rotatable=0;points=[[0,0.5],[1,0.5]];portConstraint=eastwest;whiteSpace=wrap;html=1;" vertex="1" parent="QaDs3v1icvES4gzAtx_r-86">
          <mxGeometry y="285" width="240" height="26" as="geometry" />
        </mxCell>
        <mxCell id="pJNRvae56pVTqdE-GDw2-177" value="+ A1:" style="text;strokeColor=none;fillColor=none;align=left;verticalAlign=top;spacingLeft=4;spacingRight=4;overflow=hidden;rotatable=0;points=[[0,0.5],[1,0.5]];portConstraint=eastwest;whiteSpace=wrap;html=1;" vertex="1" parent="QaDs3v1icvES4gzAtx_r-86">
          <mxGeometry y="311" width="240" height="26" as="geometry" />
        </mxCell>
        <mxCell id="QaDs3v1icvES4gzAtx_r-88" value="" style="line;strokeWidth=1;fillColor=none;align=left;verticalAlign=middle;spacingTop=-1;spacingLeft=3;spacingRight=3;rotatable=0;labelPosition=right;points=[];portConstraint=eastwest;strokeColor=inherit;container=0;" parent="QaDs3v1icvES4gzAtx_r-86" vertex="1">
          <mxGeometry y="337" width="240" height="8" as="geometry" />
        </mxCell>
        <mxCell id="pJNRvae56pVTqdE-GDw2-180" value="+ valueOf (String): LicenseClass" style="text;strokeColor=none;fillColor=none;align=left;verticalAlign=top;spacingLeft=4;spacingRight=4;overflow=hidden;rotatable=0;points=[[0,0.5],[1,0.5]];portConstraint=eastwest;whiteSpace=wrap;html=1;" vertex="1" parent="QaDs3v1icvES4gzAtx_r-86">
          <mxGeometry y="345" width="240" height="26" as="geometry" />
        </mxCell>
        <mxCell id="pJNRvae56pVTqdE-GDw2-179" value="+ values (): LicenseClass[]" style="text;strokeColor=none;fillColor=none;align=left;verticalAlign=top;spacingLeft=4;spacingRight=4;overflow=hidden;rotatable=0;points=[[0,0.5],[1,0.5]];portConstraint=eastwest;whiteSpace=wrap;html=1;" vertex="1" parent="QaDs3v1icvES4gzAtx_r-86">
          <mxGeometry y="371" width="240" height="26" as="geometry" />
        </mxCell>
        <mxCell id="QaDs3v1icvES4gzAtx_r-89" value="+ &lt;u&gt;fromString&lt;/u&gt; (value: String): LicenseClass" style="text;strokeColor=none;fillColor=none;align=left;verticalAlign=top;spacingLeft=4;spacingRight=4;overflow=hidden;rotatable=0;points=[[0,0.5],[1,0.5]];portConstraint=eastwest;whiteSpace=wrap;html=1;container=0;" parent="QaDs3v1icvES4gzAtx_r-86" vertex="1">
          <mxGeometry y="397" width="240" height="26" as="geometry" />
        </mxCell>
        <mxCell id="QaDs3v1icvES4gzAtx_r-123" value="Use" style="endArrow=open;endSize=12;dashed=1;html=1;rounded=0;exitX=0.518;exitY=1.009;exitDx=0;exitDy=0;entryX=0.5;entryY=0;entryDx=0;entryDy=0;exitPerimeter=0;" parent="WIyWlLk6GJQsqaUBKTNV-1" source="pJNRvae56pVTqdE-GDw2-156" target="QaDs3v1icvES4gzAtx_r-86" edge="1">
          <mxGeometry x="0.1077" y="-1" width="160" relative="1" as="geometry">
            <mxPoint x="517" y="757" as="sourcePoint" />
            <mxPoint x="677" y="757" as="targetPoint" />
            <Array as="points">
              <mxPoint x="400" y="940" />
              <mxPoint x="630" y="940" />
            </Array>
            <mxPoint as="offset" />
          </mxGeometry>
        </mxCell>
        <mxCell id="QaDs3v1icvES4gzAtx_r-124" value="Use" style="endArrow=open;endSize=12;dashed=1;html=1;rounded=0;exitX=1;exitY=0.5;exitDx=0;exitDy=0;entryX=-0.011;entryY=0.125;entryDx=0;entryDy=0;entryPerimeter=0;" parent="WIyWlLk6GJQsqaUBKTNV-1" source="QaDs3v1icvES4gzAtx_r-73" edge="1" target="QaDs3v1icvES4gzAtx_r-57">
          <mxGeometry x="-0.2" y="-5" width="160" relative="1" as="geometry">
            <mxPoint x="447" y="737" as="sourcePoint" />
            <mxPoint x="437" y="567" as="targetPoint" />
            <Array as="points">
              <mxPoint x="200" y="580" />
            </Array>
            <mxPoint x="-5" y="5" as="offset" />
          </mxGeometry>
        </mxCell>
        <mxCell id="QaDs3v1icvES4gzAtx_r-125" value="Use" style="endArrow=open;endSize=12;dashed=1;html=1;rounded=0;exitX=0.999;exitY=0.068;exitDx=0;exitDy=0;entryX=0.218;entryY=0.005;entryDx=0;entryDy=0;entryPerimeter=0;exitPerimeter=0;" parent="WIyWlLk6GJQsqaUBKTNV-1" source="QaDs3v1icvES4gzAtx_r-72" target="QaDs3v1icvES4gzAtx_r-65" edge="1">
          <mxGeometry x="-0.2176" y="7" width="160" relative="1" as="geometry">
            <mxPoint x="417" y="637" as="sourcePoint" />
            <mxPoint x="617" y="617" as="targetPoint" />
            <Array as="points">
              <mxPoint x="260" y="510" />
              <mxPoint x="397" y="507" />
              <mxPoint x="590" y="510" />
            </Array>
            <mxPoint as="offset" />
          </mxGeometry>
        </mxCell>
        <mxCell id="QaDs3v1icvES4gzAtx_r-127" value="1..*" style="endArrow=open;html=1;endSize=12;startArrow=diamondThin;startSize=14;startFill=0;edgeStyle=orthogonalEdgeStyle;align=left;verticalAlign=bottom;rounded=0;fillColor=#dae8fc;gradientColor=#7ea6e0;strokeColor=#6c8ebf;" parent="WIyWlLk6GJQsqaUBKTNV-1" source="pJNRvae56pVTqdE-GDw2-129" target="QaDs3v1icvES4gzAtx_r-72" edge="1">
          <mxGeometry x="-0.8118" y="6" relative="1" as="geometry">
            <mxPoint x="330" y="400" as="sourcePoint" />
            <mxPoint x="517" y="527" as="targetPoint" />
            <Array as="points">
              <mxPoint x="324" y="470" />
              <mxPoint x="237" y="470" />
            </Array>
            <mxPoint as="offset" />
          </mxGeometry>
        </mxCell>
        <mxCell id="QaDs3v1icvES4gzAtx_r-128" value="1..*" style="endArrow=open;html=1;endSize=12;startArrow=diamondThin;startSize=14;startFill=0;edgeStyle=orthogonalEdgeStyle;align=left;verticalAlign=bottom;rounded=0;fillColor=#d5e8d4;gradientColor=#97d077;strokeColor=#82b366;" parent="WIyWlLk6GJQsqaUBKTNV-1" source="pJNRvae56pVTqdE-GDw2-129" target="QaDs3v1icvES4gzAtx_r-57" edge="1">
          <mxGeometry x="-0.7823" y="7" relative="1" as="geometry">
            <mxPoint x="410" y="490" as="sourcePoint" />
            <mxPoint x="407" y="552" as="targetPoint" />
            <Array as="points">
              <mxPoint x="413" y="470" />
              <mxPoint x="477" y="470" />
            </Array>
            <mxPoint as="offset" />
          </mxGeometry>
        </mxCell>
        <mxCell id="QaDs3v1icvES4gzAtx_r-129" value="1..*" style="endArrow=open;html=1;endSize=12;startArrow=diamondThin;startSize=14;startFill=0;edgeStyle=orthogonalEdgeStyle;align=left;verticalAlign=bottom;rounded=0;fillColor=#ffcd28;gradientColor=#ffa500;strokeColor=#d79b00;" parent="WIyWlLk6GJQsqaUBKTNV-1" source="pJNRvae56pVTqdE-GDw2-129" target="QaDs3v1icvES4gzAtx_r-65" edge="1">
          <mxGeometry x="-0.874" y="4" relative="1" as="geometry">
            <mxPoint x="500" y="420" as="sourcePoint" />
            <mxPoint x="621" y="555" as="targetPoint" />
            <Array as="points">
              <mxPoint x="526" y="470" />
              <mxPoint x="697" y="470" />
            </Array>
            <mxPoint as="offset" />
          </mxGeometry>
        </mxCell>
        <mxCell id="QaDs3v1icvES4gzAtx_r-130" value="1" style="endArrow=open;html=1;endSize=12;startArrow=diamondThin;startSize=14;startFill=0;edgeStyle=orthogonalEdgeStyle;align=left;verticalAlign=bottom;rounded=0;" parent="WIyWlLk6GJQsqaUBKTNV-1" source="pJNRvae56pVTqdE-GDw2-139" target="QaDs3v1icvES4gzAtx_r-42" edge="1">
          <mxGeometry x="-0.5642" y="3" relative="1" as="geometry">
            <mxPoint x="1060" y="430" as="sourcePoint" />
            <mxPoint x="988" y="475" as="targetPoint" />
            <Array as="points">
              <mxPoint x="1060" y="450" />
              <mxPoint x="994" y="450" />
              <mxPoint x="994" y="447" />
              <mxPoint x="962" y="447" />
            </Array>
            <mxPoint as="offset" />
          </mxGeometry>
        </mxCell>
        <mxCell id="QaDs3v1icvES4gzAtx_r-131" value="1" style="endArrow=open;html=1;endSize=12;startArrow=diamondThin;startSize=14;startFill=0;edgeStyle=orthogonalEdgeStyle;align=left;verticalAlign=bottom;rounded=0;" parent="WIyWlLk6GJQsqaUBKTNV-1" source="pJNRvae56pVTqdE-GDw2-139" edge="1">
          <mxGeometry x="-0.7182" y="9" relative="1" as="geometry">
            <mxPoint x="1219.97" y="370.99999999999955" as="sourcePoint" />
            <mxPoint x="1284.97" y="519" as="targetPoint" />
            <Array as="points">
              <mxPoint x="1200" y="457" />
              <mxPoint x="1285" y="457" />
            </Array>
            <mxPoint as="offset" />
          </mxGeometry>
        </mxCell>
        <mxCell id="QaDs3v1icvES4gzAtx_r-132" value="1" style="endArrow=open;html=1;endSize=12;startArrow=diamondThin;startSize=14;startFill=0;edgeStyle=orthogonalEdgeStyle;align=left;verticalAlign=bottom;rounded=0;" parent="WIyWlLk6GJQsqaUBKTNV-1" source="pJNRvae56pVTqdE-GDw2-139" edge="1">
          <mxGeometry x="-0.8835" relative="1" as="geometry">
            <mxPoint x="1340" y="370" as="sourcePoint" />
            <mxPoint x="900" y="1040" as="targetPoint" />
            <Array as="points">
              <mxPoint x="1110" y="717" />
              <mxPoint x="837" y="717" />
              <mxPoint x="837" y="957" />
              <mxPoint x="900" y="957" />
            </Array>
            <mxPoint as="offset" />
          </mxGeometry>
        </mxCell>
        <mxCell id="QaDs3v1icvES4gzAtx_r-133" value="1" style="endArrow=open;html=1;endSize=12;startArrow=diamondThin;startSize=14;startFill=0;edgeStyle=orthogonalEdgeStyle;align=left;verticalAlign=bottom;rounded=0;entryX=0.801;entryY=-0.008;entryDx=0;entryDy=0;entryPerimeter=0;" parent="WIyWlLk6GJQsqaUBKTNV-1" target="QaDs3v1icvES4gzAtx_r-37" edge="1" source="pJNRvae56pVTqdE-GDw2-139">
          <mxGeometry x="-0.8835" relative="1" as="geometry">
            <mxPoint x="1141" y="429" as="sourcePoint" />
            <mxPoint x="1420" y="1020" as="targetPoint" />
            <Array as="points">
              <mxPoint x="1141" y="457" />
              <mxPoint x="1170" y="457" />
              <mxPoint x="1170" y="716" />
              <mxPoint x="1396" y="716" />
            </Array>
            <mxPoint as="offset" />
          </mxGeometry>
        </mxCell>
        <mxCell id="QaDs3v1icvES4gzAtx_r-134" value="1" style="endArrow=open;html=1;endSize=12;startArrow=diamondThin;startSize=14;startFill=0;edgeStyle=orthogonalEdgeStyle;align=left;verticalAlign=bottom;rounded=0;fillColor=#ffcd28;gradientColor=#ffa500;strokeColor=#d79b00;" parent="WIyWlLk6GJQsqaUBKTNV-1" source="QaDs3v1icvES4gzAtx_r-47" target="QaDs3v1icvES4gzAtx_r-65" edge="1">
          <mxGeometry x="-0.8596" y="15" relative="1" as="geometry">
            <mxPoint x="850" y="610" as="sourcePoint" />
            <mxPoint x="787" y="487" as="targetPoint" />
            <Array as="points">
              <mxPoint x="792" y="610" />
              <mxPoint x="792" y="460" />
              <mxPoint x="697" y="460" />
            </Array>
            <mxPoint as="offset" />
          </mxGeometry>
        </mxCell>
        <mxCell id="QaDs3v1icvES4gzAtx_r-135" value="1" style="endArrow=open;html=1;endSize=12;startArrow=diamondThin;startSize=14;startFill=0;edgeStyle=orthogonalEdgeStyle;align=left;verticalAlign=bottom;rounded=0;fillColor=#ffcd28;gradientColor=#ffa500;strokeColor=#d79b00;exitX=-0.002;exitY=0.402;exitDx=0;exitDy=0;exitPerimeter=0;" parent="WIyWlLk6GJQsqaUBKTNV-1" source="QaDs3v1icvES4gzAtx_r-52" edge="1">
          <mxGeometry x="-0.9445" y="20" relative="1" as="geometry">
            <mxPoint x="1170" y="650" as="sourcePoint" />
            <mxPoint x="697" y="550" as="targetPoint" />
            <Array as="points">
              <mxPoint x="1190" y="615" />
              <mxPoint x="1190" y="610" />
              <mxPoint x="1180" y="610" />
              <mxPoint x="1180" y="600" />
              <mxPoint x="1117" y="600" />
              <mxPoint x="1117" y="460" />
              <mxPoint x="697" y="460" />
            </Array>
            <mxPoint as="offset" />
          </mxGeometry>
        </mxCell>
        <mxCell id="QaDs3v1icvES4gzAtx_r-136" value="1" style="endArrow=open;html=1;endSize=12;startArrow=diamondThin;startSize=14;startFill=0;edgeStyle=orthogonalEdgeStyle;align=left;verticalAlign=bottom;rounded=0;fillColor=#ffcd28;gradientColor=#ffa500;strokeColor=#d79b00;exitX=0;exitY=0.5;exitDx=0;exitDy=0;" parent="WIyWlLk6GJQsqaUBKTNV-1" source="QaDs3v1icvES4gzAtx_r-30" edge="1" target="QaDs3v1icvES4gzAtx_r-65">
          <mxGeometry x="-0.8596" y="15" relative="1" as="geometry">
            <mxPoint x="797" y="1087" as="sourcePoint" />
            <mxPoint x="697" y="527" as="targetPoint" />
            <Array as="points">
              <mxPoint x="807" y="1113" />
              <mxPoint x="807" y="1036" />
              <mxPoint x="792" y="1036" />
              <mxPoint x="792" y="460" />
              <mxPoint x="697" y="460" />
            </Array>
            <mxPoint as="offset" />
          </mxGeometry>
        </mxCell>
        <mxCell id="QaDs3v1icvES4gzAtx_r-137" value="1" style="endArrow=open;html=1;endSize=12;startArrow=diamondThin;startSize=14;startFill=0;edgeStyle=orthogonalEdgeStyle;align=left;verticalAlign=bottom;rounded=0;fillColor=#d5e8d4;gradientColor=#97d077;strokeColor=#82b366;exitX=0.002;exitY=1.087;exitDx=0;exitDy=0;exitPerimeter=0;" parent="WIyWlLk6GJQsqaUBKTNV-1" source="pJNRvae56pVTqdE-GDw2-121" edge="1">
          <mxGeometry x="-0.9674" relative="1" as="geometry">
            <mxPoint x="1120" y="1100" as="sourcePoint" />
            <mxPoint x="340" y="880" as="targetPoint" />
            <Array as="points">
              <mxPoint x="1127" y="1094" />
              <mxPoint x="1127" y="1020" />
              <mxPoint x="340" y="1020" />
            </Array>
            <mxPoint as="offset" />
          </mxGeometry>
        </mxCell>
        <mxCell id="QaDs3v1icvES4gzAtx_r-138" value="1" style="endArrow=open;html=1;endSize=12;startArrow=diamondThin;startSize=14;startFill=0;edgeStyle=orthogonalEdgeStyle;align=left;verticalAlign=bottom;rounded=0;fillColor=#d5e8d4;gradientColor=#97d077;strokeColor=#82b366;exitX=-0.005;exitY=0.368;exitDx=0;exitDy=0;exitPerimeter=0;" parent="WIyWlLk6GJQsqaUBKTNV-1" source="QaDs3v1icvES4gzAtx_r-43" edge="1">
          <mxGeometry x="-0.9626" y="11" relative="1" as="geometry">
            <mxPoint x="820" y="600" as="sourcePoint" />
            <mxPoint x="340" y="880" as="targetPoint" />
            <Array as="points">
              <mxPoint x="820" y="589" />
              <mxPoint x="820" y="580" />
              <mxPoint x="777" y="580" />
              <mxPoint x="777" y="1020" />
              <mxPoint x="340" y="1020" />
            </Array>
            <mxPoint as="offset" />
          </mxGeometry>
        </mxCell>
        <mxCell id="QaDs3v1icvES4gzAtx_r-139" value="1" style="endArrow=open;html=1;endSize=12;startArrow=diamondThin;startSize=14;startFill=0;edgeStyle=orthogonalEdgeStyle;align=left;verticalAlign=bottom;rounded=0;fillColor=#d5e8d4;gradientColor=#97d077;strokeColor=#82b366;entryX=0.296;entryY=1.009;entryDx=0;entryDy=0;entryPerimeter=0;" parent="WIyWlLk6GJQsqaUBKTNV-1" source="QaDs3v1icvES4gzAtx_r-50" edge="1" target="pJNRvae56pVTqdE-GDw2-156">
          <mxGeometry x="-0.9558" y="13" relative="1" as="geometry">
            <mxPoint x="1200" y="550" as="sourcePoint" />
            <mxPoint x="530" y="950" as="targetPoint" />
            <Array as="points">
              <mxPoint x="1127" y="530" />
              <mxPoint x="1127" y="727" />
              <mxPoint x="1377" y="727" />
              <mxPoint x="1377" y="1020" />
              <mxPoint x="340" y="1020" />
            </Array>
            <mxPoint as="offset" />
          </mxGeometry>
        </mxCell>
        <mxCell id="QaDs3v1icvES4gzAtx_r-140" value="1" style="endArrow=open;html=1;endSize=12;startArrow=diamondThin;startSize=14;startFill=0;edgeStyle=orthogonalEdgeStyle;align=left;verticalAlign=bottom;rounded=0;fillColor=#dae8fc;gradientColor=#7ea6e0;strokeColor=#6c8ebf;exitX=0.001;exitY=1.006;exitDx=0;exitDy=0;exitPerimeter=0;entryX=0.469;entryY=1.008;entryDx=0;entryDy=0;entryPerimeter=0;" parent="WIyWlLk6GJQsqaUBKTNV-1" source="QaDs3v1icvES4gzAtx_r-47" edge="1" target="pJNRvae56pVTqdE-GDw2-149">
          <mxGeometry x="-0.9275" y="3" relative="1" as="geometry">
            <mxPoint x="873" y="632" as="sourcePoint" />
            <mxPoint x="227" y="847" as="targetPoint" />
            <Array as="points">
              <mxPoint x="820" y="631" />
              <mxPoint x="820" y="630" />
              <mxPoint x="807" y="630" />
              <mxPoint x="807" y="1030" />
              <mxPoint x="227" y="1030" />
              <mxPoint x="227" y="1054" />
            </Array>
            <mxPoint as="offset" />
          </mxGeometry>
        </mxCell>
        <mxCell id="QaDs3v1icvES4gzAtx_r-141" value="1" style="endArrow=open;html=1;endSize=12;startArrow=diamondThin;startSize=14;startFill=0;edgeStyle=orthogonalEdgeStyle;align=left;verticalAlign=bottom;rounded=0;fillColor=#dae8fc;strokeColor=#6c8ebf;gradientColor=#7ea6e0;entryX=0.465;entryY=1.023;entryDx=0;entryDy=0;entryPerimeter=0;" parent="WIyWlLk6GJQsqaUBKTNV-1" target="pJNRvae56pVTqdE-GDw2-149" edge="1">
          <mxGeometry x="-0.9766" y="-7" relative="1" as="geometry">
            <mxPoint x="1230" y="567" as="sourcePoint" />
            <mxPoint x="227" y="850" as="targetPoint" />
            <Array as="points">
              <mxPoint x="1147" y="567" />
              <mxPoint x="1147" y="707" />
              <mxPoint x="1387" y="707" />
              <mxPoint x="1387" y="1030" />
              <mxPoint x="227" y="1030" />
              <mxPoint x="227" y="1055" />
            </Array>
            <mxPoint as="offset" />
          </mxGeometry>
        </mxCell>
        <mxCell id="QaDs3v1icvES4gzAtx_r-153" style="edgeStyle=orthogonalEdgeStyle;rounded=0;orthogonalLoop=1;jettySize=auto;html=1;exitX=1;exitY=0.811;exitDx=0;exitDy=0;exitPerimeter=0;" parent="WIyWlLk6GJQsqaUBKTNV-1" source="pJNRvae56pVTqdE-GDw2-98" target="QaDs3v1icvES4gzAtx_r-50" edge="1">
          <mxGeometry relative="1" as="geometry">
            <mxPoint x="1357" y="457" as="targetPoint" />
            <Array as="points">
              <mxPoint x="1567" y="87" />
              <mxPoint x="1567" y="437" />
              <mxPoint x="1365" y="437" />
            </Array>
            <mxPoint x="930" y="60" as="sourcePoint" />
          </mxGeometry>
        </mxCell>
        <mxCell id="QaDs3v1icvES4gzAtx_r-154" value="Use" style="endArrow=open;endSize=12;dashed=1;html=1;rounded=0;exitX=0.998;exitY=0.072;exitDx=0;exitDy=0;exitPerimeter=0;entryX=0.481;entryY=0.027;entryDx=0;entryDy=0;entryPerimeter=0;" parent="WIyWlLk6GJQsqaUBKTNV-1" source="QaDs3v1icvES4gzAtx_r-22" target="pJNRvae56pVTqdE-GDw2-102" edge="1">
          <mxGeometry x="-0.2643" width="160" relative="1" as="geometry">
            <mxPoint x="1197" y="277" as="sourcePoint" />
            <mxPoint x="1407" y="307" as="targetPoint" />
            <Array as="points">
              <mxPoint x="1470" y="163" />
            </Array>
            <mxPoint as="offset" />
          </mxGeometry>
        </mxCell>
        <mxCell id="QaDs3v1icvES4gzAtx_r-156" value="Use" style="endArrow=open;endSize=12;dashed=1;html=1;rounded=0;exitX=0.111;exitY=0.942;exitDx=0;exitDy=0;exitPerimeter=0;entryX=0.005;entryY=0.808;entryDx=0;entryDy=0;entryPerimeter=0;" parent="WIyWlLk6GJQsqaUBKTNV-1" source="QaDs3v1icvES4gzAtx_r-49" target="pJNRvae56pVTqdE-GDw2-107" edge="1">
          <mxGeometry x="0.2892" width="160" relative="1" as="geometry">
            <mxPoint x="857" y="697" as="sourcePoint" />
            <mxPoint x="890" y="800" as="targetPoint" />
            <Array as="points">
              <mxPoint x="900" y="760" />
              <mxPoint x="899" y="782" />
            </Array>
            <mxPoint as="offset" />
          </mxGeometry>
        </mxCell>
        <mxCell id="QaDs3v1icvES4gzAtx_r-157" value="Use" style="endArrow=open;endSize=12;dashed=1;html=1;rounded=0;entryX=-0.007;entryY=0.346;entryDx=0;entryDy=0;entryPerimeter=0;" parent="WIyWlLk6GJQsqaUBKTNV-1" target="pJNRvae56pVTqdE-GDw2-117" edge="1">
          <mxGeometry width="160" relative="1" as="geometry">
            <mxPoint x="900" y="690" as="sourcePoint" />
            <mxPoint x="910" y="930" as="targetPoint" />
            <Array as="points">
              <mxPoint x="900" y="915" />
            </Array>
          </mxGeometry>
        </mxCell>
        <mxCell id="QaDs3v1icvES4gzAtx_r-158" value="Use" style="endArrow=open;endSize=12;dashed=1;html=1;rounded=0;exitX=0.313;exitY=0.984;exitDx=0;exitDy=0;exitPerimeter=0;entryX=0.998;entryY=0.038;entryDx=0;entryDy=0;entryPerimeter=0;" parent="WIyWlLk6GJQsqaUBKTNV-1" source="QaDs3v1icvES4gzAtx_r-56" target="pJNRvae56pVTqdE-GDw2-117" edge="1">
          <mxGeometry width="160" relative="1" as="geometry">
            <mxPoint x="1327" y="697" as="sourcePoint" />
            <mxPoint x="1290" y="940" as="targetPoint" />
            <Array as="points">
              <mxPoint x="1327" y="907" />
            </Array>
          </mxGeometry>
        </mxCell>
        <mxCell id="QaDs3v1icvES4gzAtx_r-159" value="Use" style="endArrow=open;endSize=12;dashed=1;html=1;rounded=0;entryX=1.004;entryY=0.096;entryDx=0;entryDy=0;entryPerimeter=0;" parent="WIyWlLk6GJQsqaUBKTNV-1" target="QaDs3v1icvES4gzAtx_r-102" edge="1">
          <mxGeometry width="160" relative="1" as="geometry">
            <mxPoint x="1327" y="697" as="sourcePoint" />
            <mxPoint x="1310" y="820" as="targetPoint" />
            <Array as="points">
              <mxPoint x="1327" y="797" />
            </Array>
          </mxGeometry>
        </mxCell>
        <mxCell id="pJNRvae56pVTqdE-GDw2-97" value="Main" style="swimlane;fontStyle=1;align=center;verticalAlign=top;childLayout=stackLayout;horizontal=1;startSize=26;horizontalStack=0;resizeParent=1;resizeParentMax=0;resizeLast=0;collapsible=1;marginBottom=0;whiteSpace=wrap;html=1;fillColor=#a20025;fontColor=#ffffff;strokeColor=#6F0000;" vertex="1" parent="WIyWlLk6GJQsqaUBKTNV-1">
          <mxGeometry x="677" y="40" width="160" height="86" as="geometry" />
        </mxCell>
        <mxCell id="pJNRvae56pVTqdE-GDw2-98" value="+ Main ():" style="text;strokeColor=none;fillColor=none;align=left;verticalAlign=top;spacingLeft=4;spacingRight=4;overflow=hidden;rotatable=0;points=[[0,0.5],[1,0.5]];portConstraint=eastwest;whiteSpace=wrap;html=1;" vertex="1" parent="pJNRvae56pVTqdE-GDw2-97">
          <mxGeometry y="26" width="160" height="26" as="geometry" />
        </mxCell>
        <mxCell id="pJNRvae56pVTqdE-GDw2-99" value="" style="line;strokeWidth=1;fillColor=none;align=left;verticalAlign=middle;spacingTop=-1;spacingLeft=3;spacingRight=3;rotatable=0;labelPosition=right;points=[];portConstraint=eastwest;strokeColor=inherit;" vertex="1" parent="pJNRvae56pVTqdE-GDw2-97">
          <mxGeometry y="52" width="160" height="8" as="geometry" />
        </mxCell>
        <mxCell id="pJNRvae56pVTqdE-GDw2-100" value="+ &lt;u&gt;main&lt;/u&gt;&amp;nbsp;(String[]): void" style="text;strokeColor=none;fillColor=none;align=left;verticalAlign=top;spacingLeft=4;spacingRight=4;overflow=hidden;rotatable=0;points=[[0,0.5],[1,0.5]];portConstraint=eastwest;whiteSpace=wrap;html=1;" vertex="1" parent="pJNRvae56pVTqdE-GDw2-97">
          <mxGeometry y="60" width="160" height="26" as="geometry" />
        </mxCell>
        <mxCell id="pJNRvae56pVTqdE-GDw2-102" value="ArgParserUtils" style="swimlane;fontStyle=1;align=center;verticalAlign=top;childLayout=stackLayout;horizontal=1;startSize=26;horizontalStack=0;resizeParent=1;resizeParentMax=0;resizeLast=0;collapsible=1;marginBottom=0;whiteSpace=wrap;html=1;fillColor=#0050ef;fontColor=#ffffff;strokeColor=#001DBC;" vertex="1" parent="WIyWlLk6GJQsqaUBKTNV-1">
          <mxGeometry x="1390" y="330" width="170" height="86" as="geometry" />
        </mxCell>
        <mxCell id="pJNRvae56pVTqdE-GDw2-103" value="+ ArgParserUtils ():" style="text;strokeColor=none;fillColor=none;align=left;verticalAlign=top;spacingLeft=4;spacingRight=4;overflow=hidden;rotatable=0;points=[[0,0.5],[1,0.5]];portConstraint=eastwest;whiteSpace=wrap;html=1;" vertex="1" parent="pJNRvae56pVTqdE-GDw2-102">
          <mxGeometry y="26" width="170" height="26" as="geometry" />
        </mxCell>
        <mxCell id="pJNRvae56pVTqdE-GDw2-104" value="" style="line;strokeWidth=1;fillColor=none;align=left;verticalAlign=middle;spacingTop=-1;spacingLeft=3;spacingRight=3;rotatable=0;labelPosition=right;points=[];portConstraint=eastwest;strokeColor=inherit;" vertex="1" parent="pJNRvae56pVTqdE-GDw2-102">
          <mxGeometry y="52" width="170" height="8" as="geometry" />
        </mxCell>
        <mxCell id="pJNRvae56pVTqdE-GDw2-105" value="+ extractValue (String): String" style="text;strokeColor=none;fillColor=none;align=left;verticalAlign=top;spacingLeft=4;spacingRight=4;overflow=hidden;rotatable=0;points=[[0,0.5],[1,0.5]];portConstraint=eastwest;whiteSpace=wrap;html=1;" vertex="1" parent="pJNRvae56pVTqdE-GDw2-102">
          <mxGeometry y="60" width="170" height="26" as="geometry" />
        </mxCell>
        <mxCell id="pJNRvae56pVTqdE-GDw2-106" value="EntityFinderUtlis" style="swimlane;fontStyle=1;align=center;verticalAlign=top;childLayout=stackLayout;horizontal=1;startSize=26;horizontalStack=0;resizeParent=1;resizeParentMax=0;resizeLast=0;collapsible=1;marginBottom=0;whiteSpace=wrap;html=1;fillColor=#0050ef;fontColor=#ffffff;strokeColor=#001DBC;" vertex="1" parent="WIyWlLk6GJQsqaUBKTNV-1">
          <mxGeometry x="930" y="735" width="270" height="138" as="geometry" />
        </mxCell>
        <mxCell id="pJNRvae56pVTqdE-GDw2-107" value="+ EntityFinderUtils ():" style="text;strokeColor=none;fillColor=none;align=left;verticalAlign=top;spacingLeft=4;spacingRight=4;overflow=hidden;rotatable=0;points=[[0,0.5],[1,0.5]];portConstraint=eastwest;whiteSpace=wrap;html=1;" vertex="1" parent="pJNRvae56pVTqdE-GDw2-106">
          <mxGeometry y="26" width="270" height="26" as="geometry" />
        </mxCell>
        <mxCell id="pJNRvae56pVTqdE-GDw2-108" value="" style="line;strokeWidth=1;fillColor=none;align=left;verticalAlign=middle;spacingTop=-1;spacingLeft=3;spacingRight=3;rotatable=0;labelPosition=right;points=[];portConstraint=eastwest;strokeColor=inherit;" vertex="1" parent="pJNRvae56pVTqdE-GDw2-106">
          <mxGeometry y="52" width="270" height="8" as="geometry" />
        </mxCell>
        <mxCell id="QaDs3v1icvES4gzAtx_r-102" value="+ &lt;u&gt;findDriverById&lt;/u&gt; (List&amp;lt;Driver&amp;gt;, String): Driver" style="text;strokeColor=none;fillColor=none;align=left;verticalAlign=top;spacingLeft=4;spacingRight=4;overflow=hidden;rotatable=0;points=[[0,0.5],[1,0.5]];portConstraint=eastwest;whiteSpace=wrap;html=1;container=0;" parent="pJNRvae56pVTqdE-GDw2-106" vertex="1">
          <mxGeometry y="60" width="270" height="26" as="geometry" />
        </mxCell>
        <mxCell id="QaDs3v1icvES4gzAtx_r-105" value="+ &lt;u&gt;findCarById&lt;/u&gt; (List&amp;lt;Car&amp;gt;, String): Car" style="text;strokeColor=none;fillColor=none;align=left;verticalAlign=top;spacingLeft=4;spacingRight=4;overflow=hidden;rotatable=0;points=[[0,0.5],[1,0.5]];portConstraint=eastwest;whiteSpace=wrap;html=1;container=0;" parent="pJNRvae56pVTqdE-GDw2-106" vertex="1">
          <mxGeometry y="86" width="270" height="26" as="geometry" />
        </mxCell>
        <mxCell id="QaDs3v1icvES4gzAtx_r-106" value="+ &lt;u&gt;findCarByLicensePlate&lt;/u&gt; (List&amp;lt;Car&amp;gt;, String): Car" style="text;strokeColor=none;fillColor=none;align=left;verticalAlign=top;spacingLeft=4;spacingRight=4;overflow=hidden;rotatable=0;points=[[0,0.5],[1,0.5]];portConstraint=eastwest;whiteSpace=wrap;html=1;container=0;" parent="pJNRvae56pVTqdE-GDw2-106" vertex="1">
          <mxGeometry y="112" width="270" height="26" as="geometry" />
        </mxCell>
        <mxCell id="pJNRvae56pVTqdE-GDw2-116" value="DateParserUtils" style="swimlane;fontStyle=1;align=center;verticalAlign=top;childLayout=stackLayout;horizontal=1;startSize=26;horizontalStack=0;resizeParent=1;resizeParentMax=0;resizeLast=0;collapsible=1;marginBottom=0;whiteSpace=wrap;html=1;fillColor=#0050ef;fontColor=#ffffff;strokeColor=#001DBC;" vertex="1" parent="WIyWlLk6GJQsqaUBKTNV-1">
          <mxGeometry x="930" y="880" width="270" height="112" as="geometry" />
        </mxCell>
        <mxCell id="pJNRvae56pVTqdE-GDw2-117" value="+ DateParserUtils ():" style="text;strokeColor=none;fillColor=none;align=left;verticalAlign=top;spacingLeft=4;spacingRight=4;overflow=hidden;rotatable=0;points=[[0,0.5],[1,0.5]];portConstraint=eastwest;whiteSpace=wrap;html=1;" vertex="1" parent="pJNRvae56pVTqdE-GDw2-116">
          <mxGeometry y="26" width="270" height="26" as="geometry" />
        </mxCell>
        <mxCell id="pJNRvae56pVTqdE-GDw2-118" value="" style="line;strokeWidth=1;fillColor=none;align=left;verticalAlign=middle;spacingTop=-1;spacingLeft=3;spacingRight=3;rotatable=0;labelPosition=right;points=[];portConstraint=eastwest;strokeColor=inherit;" vertex="1" parent="pJNRvae56pVTqdE-GDw2-116">
          <mxGeometry y="52" width="270" height="8" as="geometry" />
        </mxCell>
        <mxCell id="QaDs3v1icvES4gzAtx_r-99" value="+ &lt;u&gt;parseDateTime&lt;/u&gt; (String): LocalDateTime" style="text;strokeColor=none;fillColor=none;align=left;verticalAlign=top;spacingLeft=4;spacingRight=4;overflow=hidden;rotatable=0;points=[[0,0.5],[1,0.5]];portConstraint=eastwest;whiteSpace=wrap;html=1;container=0;" parent="pJNRvae56pVTqdE-GDw2-116" vertex="1">
          <mxGeometry y="60" width="270" height="26" as="geometry" />
        </mxCell>
        <mxCell id="QaDs3v1icvES4gzAtx_r-104" value="+ &lt;u&gt;parseDate&lt;/u&gt; (String): LocalDate" style="text;strokeColor=none;fillColor=none;align=left;verticalAlign=top;spacingLeft=4;spacingRight=4;overflow=hidden;rotatable=0;points=[[0,0.5],[1,0.5]];portConstraint=eastwest;whiteSpace=wrap;html=1;container=0;" parent="pJNRvae56pVTqdE-GDw2-116" vertex="1">
          <mxGeometry y="86" width="270" height="26" as="geometry" />
        </mxCell>
        <mxCell id="pJNRvae56pVTqdE-GDw2-181" value="DuplicateEntityException&lt;div&gt;&lt;br&gt;&lt;/div&gt;" style="swimlane;fontStyle=1;align=center;verticalAlign=top;childLayout=stackLayout;horizontal=1;startSize=26;horizontalStack=0;resizeParent=1;resizeParentMax=0;resizeLast=0;collapsible=1;marginBottom=0;whiteSpace=wrap;html=1;fillColor=#e51400;fontColor=#ffffff;strokeColor=#B20000;movable=1;resizable=1;rotatable=1;deletable=1;editable=1;locked=0;connectable=1;" vertex="1" parent="WIyWlLk6GJQsqaUBKTNV-1">
          <mxGeometry x="-80" y="178" width="280" height="60" as="geometry" />
        </mxCell>
        <mxCell id="pJNRvae56pVTqdE-GDw2-182" value="" style="line;strokeWidth=1;fillColor=none;align=left;verticalAlign=middle;spacingTop=-1;spacingLeft=3;spacingRight=3;rotatable=1;labelPosition=right;points=[];portConstraint=eastwest;strokeColor=inherit;movable=1;resizable=1;deletable=1;editable=1;locked=0;connectable=1;" vertex="1" parent="pJNRvae56pVTqdE-GDw2-181">
          <mxGeometry y="26" width="280" height="8" as="geometry" />
        </mxCell>
        <mxCell id="pJNRvae56pVTqdE-GDw2-183" value="+ DuplicateEntityExeption (message: String)" style="text;strokeColor=none;fillColor=none;align=left;verticalAlign=top;spacingLeft=4;spacingRight=4;overflow=hidden;rotatable=1;points=[[0,0.5],[1,0.5]];portConstraint=eastwest;whiteSpace=wrap;html=1;movable=1;resizable=1;deletable=1;editable=1;locked=0;connectable=1;" vertex="1" parent="pJNRvae56pVTqdE-GDw2-181">
          <mxGeometry y="34" width="280" height="26" as="geometry" />
        </mxCell>
        <mxCell id="pJNRvae56pVTqdE-GDw2-184" value="InvalidInputException&lt;div&gt;&lt;br&gt;&lt;/div&gt;" style="swimlane;fontStyle=1;align=center;verticalAlign=top;childLayout=stackLayout;horizontal=1;startSize=26;horizontalStack=0;resizeParent=1;resizeParentMax=0;resizeLast=0;collapsible=1;marginBottom=0;whiteSpace=wrap;html=1;fillColor=#e51400;fontColor=#ffffff;strokeColor=#B20000;movable=1;resizable=1;rotatable=1;deletable=1;editable=1;locked=0;connectable=1;" vertex="1" parent="WIyWlLk6GJQsqaUBKTNV-1">
          <mxGeometry x="-80" y="311" width="280" height="60" as="geometry" />
        </mxCell>
        <mxCell id="pJNRvae56pVTqdE-GDw2-185" value="" style="line;strokeWidth=1;fillColor=none;align=left;verticalAlign=middle;spacingTop=-1;spacingLeft=3;spacingRight=3;rotatable=1;labelPosition=right;points=[];portConstraint=eastwest;strokeColor=inherit;movable=1;resizable=1;deletable=1;editable=1;locked=0;connectable=1;" vertex="1" parent="pJNRvae56pVTqdE-GDw2-184">
          <mxGeometry y="26" width="280" height="8" as="geometry" />
        </mxCell>
        <mxCell id="pJNRvae56pVTqdE-GDw2-186" value="+ InvalidInputException (message: String)" style="text;strokeColor=none;fillColor=none;align=left;verticalAlign=top;spacingLeft=4;spacingRight=4;overflow=hidden;rotatable=1;points=[[0,0.5],[1,0.5]];portConstraint=eastwest;whiteSpace=wrap;html=1;movable=1;resizable=1;deletable=1;editable=1;locked=0;connectable=1;" vertex="1" parent="pJNRvae56pVTqdE-GDw2-184">
          <mxGeometry y="34" width="280" height="26" as="geometry" />
        </mxCell>
        <mxCell id="pJNRvae56pVTqdE-GDw2-187" value="EntityNotFoundException&lt;div&gt;&lt;br&gt;&lt;/div&gt;" style="swimlane;fontStyle=1;align=center;verticalAlign=top;childLayout=stackLayout;horizontal=1;startSize=26;horizontalStack=0;resizeParent=1;resizeParentMax=0;resizeLast=0;collapsible=1;marginBottom=0;whiteSpace=wrap;html=1;fillColor=#e51400;fontColor=#ffffff;strokeColor=#B20000;movable=1;resizable=1;rotatable=1;deletable=1;editable=1;locked=0;connectable=1;" vertex="1" parent="WIyWlLk6GJQsqaUBKTNV-1">
          <mxGeometry x="-80" y="247" width="280" height="60" as="geometry" />
        </mxCell>
        <mxCell id="pJNRvae56pVTqdE-GDw2-188" value="" style="line;strokeWidth=1;fillColor=none;align=left;verticalAlign=middle;spacingTop=-1;spacingLeft=3;spacingRight=3;rotatable=1;labelPosition=right;points=[];portConstraint=eastwest;strokeColor=inherit;movable=1;resizable=1;deletable=1;editable=1;locked=0;connectable=1;" vertex="1" parent="pJNRvae56pVTqdE-GDw2-187">
          <mxGeometry y="26" width="280" height="8" as="geometry" />
        </mxCell>
        <mxCell id="pJNRvae56pVTqdE-GDw2-189" value="+ EntityNotFoundException (message: String)" style="text;strokeColor=none;fillColor=none;align=left;verticalAlign=top;spacingLeft=4;spacingRight=4;overflow=hidden;rotatable=1;points=[[0,0.5],[1,0.5]];portConstraint=eastwest;whiteSpace=wrap;html=1;movable=1;resizable=1;deletable=1;editable=1;locked=0;connectable=1;" vertex="1" parent="pJNRvae56pVTqdE-GDw2-187">
          <mxGeometry y="34" width="280" height="26" as="geometry" />
        </mxCell>
        <mxCell id="pJNRvae56pVTqdE-GDw2-190" value="Extends" style="endArrow=block;endSize=16;endFill=0;html=1;rounded=0;exitX=0.001;exitY=0.54;exitDx=0;exitDy=0;exitPerimeter=0;entryX=0;entryY=0.5;entryDx=0;entryDy=0;movable=1;resizable=1;rotatable=1;deletable=1;editable=1;locked=0;connectable=1;" edge="1" parent="WIyWlLk6GJQsqaUBKTNV-1" source="pJNRvae56pVTqdE-GDw2-182" target="pJNRvae56pVTqdE-GDw2-191">
          <mxGeometry x="-0.0353" width="160" relative="1" as="geometry">
            <mxPoint x="-190" y="238" as="sourcePoint" />
            <mxPoint x="10" y="428" as="targetPoint" />
            <Array as="points">
              <mxPoint x="-130" y="208" />
              <mxPoint x="-130" y="138" />
            </Array>
            <mxPoint as="offset" />
          </mxGeometry>
        </mxCell>
        <mxCell id="pJNRvae56pVTqdE-GDw2-191" value="RuntimeException&lt;div&gt;&lt;br&gt;&lt;/div&gt;" style="swimlane;fontStyle=1;align=center;verticalAlign=top;childLayout=stackLayout;horizontal=1;startSize=26;horizontalStack=0;resizeParent=1;resizeParentMax=0;resizeLast=0;collapsible=1;marginBottom=0;whiteSpace=wrap;html=1;fillColor=#e51400;fontColor=#ffffff;strokeColor=#B20000;movable=1;resizable=1;rotatable=1;deletable=1;editable=1;locked=0;connectable=1;" vertex="1" parent="WIyWlLk6GJQsqaUBKTNV-1">
          <mxGeometry x="-80" y="121" width="280" height="34" as="geometry" />
        </mxCell>
        <mxCell id="pJNRvae56pVTqdE-GDw2-192" value="" style="line;strokeWidth=1;fillColor=none;align=left;verticalAlign=middle;spacingTop=-1;spacingLeft=3;spacingRight=3;rotatable=1;labelPosition=right;points=[];portConstraint=eastwest;strokeColor=inherit;movable=1;resizable=1;deletable=1;editable=1;locked=0;connectable=1;" vertex="1" parent="pJNRvae56pVTqdE-GDw2-191">
          <mxGeometry y="26" width="280" height="8" as="geometry" />
        </mxCell>
        <mxCell id="pJNRvae56pVTqdE-GDw2-193" value="Extends" style="endArrow=block;endSize=16;endFill=0;html=1;rounded=0;exitX=0;exitY=0.5;exitDx=0;exitDy=0;entryX=0;entryY=0.5;entryDx=0;entryDy=0;movable=1;resizable=1;rotatable=1;deletable=1;editable=1;locked=0;connectable=1;" edge="1" parent="WIyWlLk6GJQsqaUBKTNV-1" source="pJNRvae56pVTqdE-GDw2-187" target="pJNRvae56pVTqdE-GDw2-191">
          <mxGeometry x="-0.4025" width="160" relative="1" as="geometry">
            <mxPoint x="-141" y="294" as="sourcePoint" />
            <mxPoint x="-141" y="225" as="targetPoint" />
            <Array as="points">
              <mxPoint x="-130" y="278" />
              <mxPoint x="-130" y="138" />
            </Array>
            <mxPoint as="offset" />
          </mxGeometry>
        </mxCell>
        <mxCell id="pJNRvae56pVTqdE-GDw2-194" value="Extends" style="endArrow=block;endSize=16;endFill=0;html=1;rounded=0;entryX=0;entryY=0.5;entryDx=0;entryDy=0;movable=1;resizable=1;rotatable=1;deletable=1;editable=1;locked=0;connectable=1;" edge="1" parent="WIyWlLk6GJQsqaUBKTNV-1" target="pJNRvae56pVTqdE-GDw2-191">
          <mxGeometry x="-0.4025" width="160" relative="1" as="geometry">
            <mxPoint x="-80" y="338" as="sourcePoint" />
            <mxPoint x="-100" y="158" as="targetPoint" />
            <Array as="points">
              <mxPoint x="-130" y="338" />
              <mxPoint x="-130" y="138" />
            </Array>
            <mxPoint as="offset" />
          </mxGeometry>
        </mxCell>
        <mxCell id="pJNRvae56pVTqdE-GDw2-195" value="+ CarSearchServiceTest: class" style="swimlane;fontStyle=1;align=center;verticalAlign=top;childLayout=stackLayout;horizontal=1;startSize=26;horizontalStack=0;resizeParent=1;resizeParentMax=0;resizeLast=0;collapsible=1;marginBottom=0;whiteSpace=wrap;html=1;fillColor=#647687;fontColor=#ffffff;strokeColor=#314354;" vertex="1" parent="WIyWlLk6GJQsqaUBKTNV-1">
          <mxGeometry x="-800" y="80" width="300" height="250" as="geometry" />
        </mxCell>
        <mxCell id="pJNRvae56pVTqdE-GDw2-196" value="+ CarSearchServiceTest ():" style="text;strokeColor=none;fillColor=none;align=left;verticalAlign=top;spacingLeft=4;spacingRight=4;overflow=hidden;rotatable=0;points=[[0,0.5],[1,0.5]];portConstraint=eastwest;whiteSpace=wrap;html=1;" vertex="1" parent="pJNRvae56pVTqdE-GDw2-195">
          <mxGeometry y="26" width="300" height="26" as="geometry" />
        </mxCell>
        <mxCell id="pJNRvae56pVTqdE-GDw2-197" value="" style="line;strokeWidth=1;fillColor=none;align=left;verticalAlign=middle;spacingTop=-1;spacingLeft=3;spacingRight=3;rotatable=0;labelPosition=right;points=[];portConstraint=eastwest;strokeColor=inherit;" vertex="1" parent="pJNRvae56pVTqdE-GDw2-195">
          <mxGeometry y="52" width="300" height="8" as="geometry" />
        </mxCell>
        <mxCell id="pJNRvae56pVTqdE-GDw2-198" value="- carSearchService: CarSearchService" style="text;strokeColor=none;fillColor=none;align=left;verticalAlign=top;spacingLeft=4;spacingRight=4;overflow=hidden;rotatable=0;points=[[0,0.5],[1,0.5]];portConstraint=eastwest;whiteSpace=wrap;html=1;" vertex="1" parent="pJNRvae56pVTqdE-GDw2-195">
          <mxGeometry y="60" width="300" height="26" as="geometry" />
        </mxCell>
        <mxCell id="pJNRvae56pVTqdE-GDw2-199" value="- output: ByteArrayOutputStream" style="text;strokeColor=none;fillColor=none;align=left;verticalAlign=top;spacingLeft=4;spacingRight=4;overflow=hidden;rotatable=0;points=[[0,0.5],[1,0.5]];portConstraint=eastwest;whiteSpace=wrap;html=1;" vertex="1" parent="pJNRvae56pVTqdE-GDw2-195">
          <mxGeometry y="86" width="300" height="26" as="geometry" />
        </mxCell>
        <mxCell id="pJNRvae56pVTqdE-GDw2-200" value="" style="line;strokeWidth=1;fillColor=none;align=left;verticalAlign=middle;spacingTop=-1;spacingLeft=3;spacingRight=3;rotatable=0;labelPosition=right;points=[];portConstraint=eastwest;strokeColor=inherit;" vertex="1" parent="pJNRvae56pVTqdE-GDw2-195">
          <mxGeometry y="112" width="300" height="8" as="geometry" />
        </mxCell>
        <mxCell id="pJNRvae56pVTqdE-GDw2-201" value="+ setUp: void" style="text;strokeColor=none;fillColor=none;align=left;verticalAlign=top;spacingLeft=4;spacingRight=4;overflow=hidden;rotatable=0;points=[[0,0.5],[1,0.5]];portConstraint=eastwest;whiteSpace=wrap;html=1;" vertex="1" parent="pJNRvae56pVTqdE-GDw2-195">
          <mxGeometry y="120" width="300" height="26" as="geometry" />
        </mxCell>
        <mxCell id="pJNRvae56pVTqdE-GDw2-202" value="+ testSearchByKeywordFindsMatch (): void" style="text;strokeColor=none;fillColor=none;align=left;verticalAlign=top;spacingLeft=4;spacingRight=4;overflow=hidden;rotatable=0;points=[[0,0.5],[1,0.5]];portConstraint=eastwest;whiteSpace=wrap;html=1;" vertex="1" parent="pJNRvae56pVTqdE-GDw2-195">
          <mxGeometry y="146" width="300" height="26" as="geometry" />
        </mxCell>
        <mxCell id="pJNRvae56pVTqdE-GDw2-203" value="+ testSearchByKeywordNoMatch (): void" style="text;strokeColor=none;fillColor=none;align=left;verticalAlign=top;spacingLeft=4;spacingRight=4;overflow=hidden;rotatable=0;points=[[0,0.5],[1,0.5]];portConstraint=eastwest;whiteSpace=wrap;html=1;" vertex="1" parent="pJNRvae56pVTqdE-GDw2-195">
          <mxGeometry y="172" width="300" height="26" as="geometry" />
        </mxCell>
        <mxCell id="pJNRvae56pVTqdE-GDw2-204" value="+ testSearchByKeywordCaseInsensitive (): void" style="text;strokeColor=none;fillColor=none;align=left;verticalAlign=top;spacingLeft=4;spacingRight=4;overflow=hidden;rotatable=0;points=[[0,0.5],[1,0.5]];portConstraint=eastwest;whiteSpace=wrap;html=1;" vertex="1" parent="pJNRvae56pVTqdE-GDw2-195">
          <mxGeometry y="198" width="300" height="26" as="geometry" />
        </mxCell>
        <mxCell id="pJNRvae56pVTqdE-GDw2-205" value="+ testSearchByPartialKeyword (): void" style="text;strokeColor=none;fillColor=none;align=left;verticalAlign=top;spacingLeft=4;spacingRight=4;overflow=hidden;rotatable=0;points=[[0,0.5],[1,0.5]];portConstraint=eastwest;whiteSpace=wrap;html=1;" vertex="1" parent="pJNRvae56pVTqdE-GDw2-195">
          <mxGeometry y="224" width="300" height="26" as="geometry" />
        </mxCell>
        <mxCell id="pJNRvae56pVTqdE-GDw2-206" value="+ DriverSearchServiceTest: class" style="swimlane;fontStyle=1;align=center;verticalAlign=top;childLayout=stackLayout;horizontal=1;startSize=26;horizontalStack=0;resizeParent=1;resizeParentMax=0;resizeLast=0;collapsible=1;marginBottom=0;whiteSpace=wrap;html=1;fillColor=#647687;fontColor=#ffffff;strokeColor=#314354;" vertex="1" parent="WIyWlLk6GJQsqaUBKTNV-1">
          <mxGeometry x="-800" y="338" width="300" height="224" as="geometry" />
        </mxCell>
        <mxCell id="pJNRvae56pVTqdE-GDw2-207" value="+ DriverSearchServiceTest ():" style="text;strokeColor=none;fillColor=none;align=left;verticalAlign=top;spacingLeft=4;spacingRight=4;overflow=hidden;rotatable=0;points=[[0,0.5],[1,0.5]];portConstraint=eastwest;whiteSpace=wrap;html=1;" vertex="1" parent="pJNRvae56pVTqdE-GDw2-206">
          <mxGeometry y="26" width="300" height="26" as="geometry" />
        </mxCell>
        <mxCell id="pJNRvae56pVTqdE-GDw2-208" value="" style="line;strokeWidth=1;fillColor=none;align=left;verticalAlign=middle;spacingTop=-1;spacingLeft=3;spacingRight=3;rotatable=0;labelPosition=right;points=[];portConstraint=eastwest;strokeColor=inherit;" vertex="1" parent="pJNRvae56pVTqdE-GDw2-206">
          <mxGeometry y="52" width="300" height="8" as="geometry" />
        </mxCell>
        <mxCell id="pJNRvae56pVTqdE-GDw2-209" value="- driverSearchService: DriverSearchService" style="text;strokeColor=none;fillColor=none;align=left;verticalAlign=top;spacingLeft=4;spacingRight=4;overflow=hidden;rotatable=0;points=[[0,0.5],[1,0.5]];portConstraint=eastwest;whiteSpace=wrap;html=1;" vertex="1" parent="pJNRvae56pVTqdE-GDw2-206">
          <mxGeometry y="60" width="300" height="26" as="geometry" />
        </mxCell>
        <mxCell id="pJNRvae56pVTqdE-GDw2-210" value="- output: ByteArrayOutputStream" style="text;strokeColor=none;fillColor=none;align=left;verticalAlign=top;spacingLeft=4;spacingRight=4;overflow=hidden;rotatable=0;points=[[0,0.5],[1,0.5]];portConstraint=eastwest;whiteSpace=wrap;html=1;" vertex="1" parent="pJNRvae56pVTqdE-GDw2-206">
          <mxGeometry y="86" width="300" height="26" as="geometry" />
        </mxCell>
        <mxCell id="pJNRvae56pVTqdE-GDw2-211" value="" style="line;strokeWidth=1;fillColor=none;align=left;verticalAlign=middle;spacingTop=-1;spacingLeft=3;spacingRight=3;rotatable=0;labelPosition=right;points=[];portConstraint=eastwest;strokeColor=inherit;" vertex="1" parent="pJNRvae56pVTqdE-GDw2-206">
          <mxGeometry y="112" width="300" height="8" as="geometry" />
        </mxCell>
        <mxCell id="pJNRvae56pVTqdE-GDw2-212" value="+ testSearchByNameFindsSingleMatch (): void" style="text;strokeColor=none;fillColor=none;align=left;verticalAlign=top;spacingLeft=4;spacingRight=4;overflow=hidden;rotatable=0;points=[[0,0.5],[1,0.5]];portConstraint=eastwest;whiteSpace=wrap;html=1;" vertex="1" parent="pJNRvae56pVTqdE-GDw2-206">
          <mxGeometry y="120" width="300" height="26" as="geometry" />
        </mxCell>
        <mxCell id="pJNRvae56pVTqdE-GDw2-213" value="+ testSearchByNameFindsMultipleMatches (): void" style="text;strokeColor=none;fillColor=none;align=left;verticalAlign=top;spacingLeft=4;spacingRight=4;overflow=hidden;rotatable=0;points=[[0,0.5],[1,0.5]];portConstraint=eastwest;whiteSpace=wrap;html=1;" vertex="1" parent="pJNRvae56pVTqdE-GDw2-206">
          <mxGeometry y="146" width="300" height="26" as="geometry" />
        </mxCell>
        <mxCell id="pJNRvae56pVTqdE-GDw2-214" value="+ testSearchByNameNoMatch (): void" style="text;strokeColor=none;fillColor=none;align=left;verticalAlign=top;spacingLeft=4;spacingRight=4;overflow=hidden;rotatable=0;points=[[0,0.5],[1,0.5]];portConstraint=eastwest;whiteSpace=wrap;html=1;" vertex="1" parent="pJNRvae56pVTqdE-GDw2-206">
          <mxGeometry y="172" width="300" height="26" as="geometry" />
        </mxCell>
        <mxCell id="pJNRvae56pVTqdE-GDw2-215" value="+ testSearchByNameCaseInsensitive (): void" style="text;strokeColor=none;fillColor=none;align=left;verticalAlign=top;spacingLeft=4;spacingRight=4;overflow=hidden;rotatable=0;points=[[0,0.5],[1,0.5]];portConstraint=eastwest;whiteSpace=wrap;html=1;" vertex="1" parent="pJNRvae56pVTqdE-GDw2-206">
          <mxGeometry y="198" width="300" height="26" as="geometry" />
        </mxCell>
        <mxCell id="pJNRvae56pVTqdE-GDw2-216" value="+ LostAndFoundServiceTest: class" style="swimlane;fontStyle=1;align=center;verticalAlign=top;childLayout=stackLayout;horizontal=1;startSize=26;horizontalStack=0;resizeParent=1;resizeParentMax=0;resizeLast=0;collapsible=1;marginBottom=0;whiteSpace=wrap;html=1;fillColor=#647687;fontColor=#ffffff;strokeColor=#314354;" vertex="1" parent="WIyWlLk6GJQsqaUBKTNV-1">
          <mxGeometry x="-800" y="570" width="300" height="224" as="geometry" />
        </mxCell>
        <mxCell id="pJNRvae56pVTqdE-GDw2-217" value="+ LostAndFoundServiceTest ():&amp;nbsp;" style="text;strokeColor=none;fillColor=none;align=left;verticalAlign=top;spacingLeft=4;spacingRight=4;overflow=hidden;rotatable=0;points=[[0,0.5],[1,0.5]];portConstraint=eastwest;whiteSpace=wrap;html=1;" vertex="1" parent="pJNRvae56pVTqdE-GDw2-216">
          <mxGeometry y="26" width="300" height="26" as="geometry" />
        </mxCell>
        <mxCell id="pJNRvae56pVTqdE-GDw2-218" value="" style="line;strokeWidth=1;fillColor=none;align=left;verticalAlign=middle;spacingTop=-1;spacingLeft=3;spacingRight=3;rotatable=0;labelPosition=right;points=[];portConstraint=eastwest;strokeColor=inherit;" vertex="1" parent="pJNRvae56pVTqdE-GDw2-216">
          <mxGeometry y="52" width="300" height="8" as="geometry" />
        </mxCell>
        <mxCell id="pJNRvae56pVTqdE-GDw2-219" value="- lostAndFoundService: LostAndFoundService" style="text;strokeColor=none;fillColor=none;align=left;verticalAlign=top;spacingLeft=4;spacingRight=4;overflow=hidden;rotatable=0;points=[[0,0.5],[1,0.5]];portConstraint=eastwest;whiteSpace=wrap;html=1;" vertex="1" parent="pJNRvae56pVTqdE-GDw2-216">
          <mxGeometry y="60" width="300" height="26" as="geometry" />
        </mxCell>
        <mxCell id="pJNRvae56pVTqdE-GDw2-220" value="- output: ByteArrayOutputStream" style="text;strokeColor=none;fillColor=none;align=left;verticalAlign=top;spacingLeft=4;spacingRight=4;overflow=hidden;rotatable=0;points=[[0,0.5],[1,0.5]];portConstraint=eastwest;whiteSpace=wrap;html=1;" vertex="1" parent="pJNRvae56pVTqdE-GDw2-216">
          <mxGeometry y="86" width="300" height="26" as="geometry" />
        </mxCell>
        <mxCell id="pJNRvae56pVTqdE-GDw2-221" value="" style="line;strokeWidth=1;fillColor=none;align=left;verticalAlign=middle;spacingTop=-1;spacingLeft=3;spacingRight=3;rotatable=0;labelPosition=right;points=[];portConstraint=eastwest;strokeColor=inherit;" vertex="1" parent="pJNRvae56pVTqdE-GDw2-216">
          <mxGeometry y="112" width="300" height="8" as="geometry" />
        </mxCell>
        <mxCell id="pJNRvae56pVTqdE-GDw2-222" value="+ setUp (): void" style="text;strokeColor=none;fillColor=none;align=left;verticalAlign=top;spacingLeft=4;spacingRight=4;overflow=hidden;rotatable=0;points=[[0,0.5],[1,0.5]];portConstraint=eastwest;whiteSpace=wrap;html=1;" vertex="1" parent="pJNRvae56pVTqdE-GDw2-216">
          <mxGeometry y="120" width="300" height="26" as="geometry" />
        </mxCell>
        <mxCell id="pJNRvae56pVTqdE-GDw2-223" value="+ testFindOtherDriversOnSameDay (): void" style="text;strokeColor=none;fillColor=none;align=left;verticalAlign=top;spacingLeft=4;spacingRight=4;overflow=hidden;rotatable=0;points=[[0,0.5],[1,0.5]];portConstraint=eastwest;whiteSpace=wrap;html=1;" vertex="1" parent="pJNRvae56pVTqdE-GDw2-216">
          <mxGeometry y="146" width="300" height="26" as="geometry" />
        </mxCell>
        <mxCell id="pJNRvae56pVTqdE-GDw2-224" value="+ testInvalidFormatThrows (): void" style="text;strokeColor=none;fillColor=none;align=left;verticalAlign=top;spacingLeft=4;spacingRight=4;overflow=hidden;rotatable=0;points=[[0,0.5],[1,0.5]];portConstraint=eastwest;whiteSpace=wrap;html=1;" vertex="1" parent="pJNRvae56pVTqdE-GDw2-216">
          <mxGeometry y="172" width="300" height="26" as="geometry" />
        </mxCell>
        <mxCell id="pJNRvae56pVTqdE-GDw2-225" value="+ testNoMatchFound (): void" style="text;strokeColor=none;fillColor=none;align=left;verticalAlign=top;spacingLeft=4;spacingRight=4;overflow=hidden;rotatable=0;points=[[0,0.5],[1,0.5]];portConstraint=eastwest;whiteSpace=wrap;html=1;" vertex="1" parent="pJNRvae56pVTqdE-GDw2-216">
          <mxGeometry y="198" width="300" height="26" as="geometry" />
        </mxCell>
        <mxCell id="pJNRvae56pVTqdE-GDw2-226" value="+ RadarTrapServiceTest: class" style="swimlane;fontStyle=1;align=center;verticalAlign=top;childLayout=stackLayout;horizontal=1;startSize=26;horizontalStack=0;resizeParent=1;resizeParentMax=0;resizeLast=0;collapsible=1;marginBottom=0;whiteSpace=wrap;html=1;fillColor=#647687;fontColor=#ffffff;strokeColor=#314354;" vertex="1" parent="WIyWlLk6GJQsqaUBKTNV-1">
          <mxGeometry x="-800" y="800" width="300" height="224" as="geometry" />
        </mxCell>
        <mxCell id="pJNRvae56pVTqdE-GDw2-227" value="+ RadarTrapServiceTest ():" style="text;strokeColor=none;fillColor=none;align=left;verticalAlign=top;spacingLeft=4;spacingRight=4;overflow=hidden;rotatable=0;points=[[0,0.5],[1,0.5]];portConstraint=eastwest;whiteSpace=wrap;html=1;" vertex="1" parent="pJNRvae56pVTqdE-GDw2-226">
          <mxGeometry y="26" width="300" height="26" as="geometry" />
        </mxCell>
        <mxCell id="pJNRvae56pVTqdE-GDw2-228" value="" style="line;strokeWidth=1;fillColor=none;align=left;verticalAlign=middle;spacingTop=-1;spacingLeft=3;spacingRight=3;rotatable=0;labelPosition=right;points=[];portConstraint=eastwest;strokeColor=inherit;" vertex="1" parent="pJNRvae56pVTqdE-GDw2-226">
          <mxGeometry y="52" width="300" height="8" as="geometry" />
        </mxCell>
        <mxCell id="pJNRvae56pVTqdE-GDw2-229" value="- radarTrapService: RadarTrapService" style="text;strokeColor=none;fillColor=none;align=left;verticalAlign=top;spacingLeft=4;spacingRight=4;overflow=hidden;rotatable=0;points=[[0,0.5],[1,0.5]];portConstraint=eastwest;whiteSpace=wrap;html=1;" vertex="1" parent="pJNRvae56pVTqdE-GDw2-226">
          <mxGeometry y="60" width="300" height="26" as="geometry" />
        </mxCell>
        <mxCell id="pJNRvae56pVTqdE-GDw2-230" value="- output: ByteArrayOutputStream" style="text;strokeColor=none;fillColor=none;align=left;verticalAlign=top;spacingLeft=4;spacingRight=4;overflow=hidden;rotatable=0;points=[[0,0.5],[1,0.5]];portConstraint=eastwest;whiteSpace=wrap;html=1;" vertex="1" parent="pJNRvae56pVTqdE-GDw2-226">
          <mxGeometry y="86" width="300" height="26" as="geometry" />
        </mxCell>
        <mxCell id="pJNRvae56pVTqdE-GDw2-231" value="" style="line;strokeWidth=1;fillColor=none;align=left;verticalAlign=middle;spacingTop=-1;spacingLeft=3;spacingRight=3;rotatable=0;labelPosition=right;points=[];portConstraint=eastwest;strokeColor=inherit;" vertex="1" parent="pJNRvae56pVTqdE-GDw2-226">
          <mxGeometry y="112" width="300" height="8" as="geometry" />
        </mxCell>
        <mxCell id="pJNRvae56pVTqdE-GDw2-232" value="+ setUp (): void" style="text;strokeColor=none;fillColor=none;align=left;verticalAlign=top;spacingLeft=4;spacingRight=4;overflow=hidden;rotatable=0;points=[[0,0.5],[1,0.5]];portConstraint=eastwest;whiteSpace=wrap;html=1;" vertex="1" parent="pJNRvae56pVTqdE-GDw2-226">
          <mxGeometry y="120" width="300" height="26" as="geometry" />
        </mxCell>
        <mxCell id="pJNRvae56pVTqdE-GDw2-233" value="+ testFindDriverAtTimeSuccess (): void" style="text;strokeColor=none;fillColor=none;align=left;verticalAlign=top;spacingLeft=4;spacingRight=4;overflow=hidden;rotatable=0;points=[[0,0.5],[1,0.5]];portConstraint=eastwest;whiteSpace=wrap;html=1;" vertex="1" parent="pJNRvae56pVTqdE-GDw2-226">
          <mxGeometry y="146" width="300" height="26" as="geometry" />
        </mxCell>
        <mxCell id="pJNRvae56pVTqdE-GDw2-234" value="+ testFindDriverAtTimeNoMatch (): void" style="text;strokeColor=none;fillColor=none;align=left;verticalAlign=top;spacingLeft=4;spacingRight=4;overflow=hidden;rotatable=0;points=[[0,0.5],[1,0.5]];portConstraint=eastwest;whiteSpace=wrap;html=1;" vertex="1" parent="pJNRvae56pVTqdE-GDw2-226">
          <mxGeometry y="172" width="300" height="26" as="geometry" />
        </mxCell>
        <mxCell id="pJNRvae56pVTqdE-GDw2-235" value="+ testInvalidFormatThrows (): void" style="text;strokeColor=none;fillColor=none;align=left;verticalAlign=top;spacingLeft=4;spacingRight=4;overflow=hidden;rotatable=0;points=[[0,0.5],[1,0.5]];portConstraint=eastwest;whiteSpace=wrap;html=1;" vertex="1" parent="pJNRvae56pVTqdE-GDw2-226">
          <mxGeometry y="198" width="300" height="26" as="geometry" />
        </mxCell>
        <mxCell id="pJNRvae56pVTqdE-GDw2-236" value="+ ImportServiceTest: class" style="swimlane;fontStyle=1;align=center;verticalAlign=top;childLayout=stackLayout;horizontal=1;startSize=26;horizontalStack=0;resizeParent=1;resizeParentMax=0;resizeLast=0;collapsible=1;marginBottom=0;whiteSpace=wrap;html=1;fillColor=#647687;fontColor=#ffffff;strokeColor=#314354;" vertex="1" parent="WIyWlLk6GJQsqaUBKTNV-1">
          <mxGeometry x="-800" y="1030" width="300" height="276" as="geometry" />
        </mxCell>
        <mxCell id="pJNRvae56pVTqdE-GDw2-237" value="+ ImportServiceTest ():" style="text;strokeColor=none;fillColor=none;align=left;verticalAlign=top;spacingLeft=4;spacingRight=4;overflow=hidden;rotatable=0;points=[[0,0.5],[1,0.5]];portConstraint=eastwest;whiteSpace=wrap;html=1;" vertex="1" parent="pJNRvae56pVTqdE-GDw2-236">
          <mxGeometry y="26" width="300" height="26" as="geometry" />
        </mxCell>
        <mxCell id="pJNRvae56pVTqdE-GDw2-238" value="" style="line;strokeWidth=1;fillColor=none;align=left;verticalAlign=middle;spacingTop=-1;spacingLeft=3;spacingRight=3;rotatable=0;labelPosition=right;points=[];portConstraint=eastwest;strokeColor=inherit;" vertex="1" parent="pJNRvae56pVTqdE-GDw2-236">
          <mxGeometry y="52" width="300" height="8" as="geometry" />
        </mxCell>
        <mxCell id="pJNRvae56pVTqdE-GDw2-239" value="- importService: ImportService" style="text;strokeColor=none;fillColor=none;align=left;verticalAlign=top;spacingLeft=4;spacingRight=4;overflow=hidden;rotatable=0;points=[[0,0.5],[1,0.5]];portConstraint=eastwest;whiteSpace=wrap;html=1;" vertex="1" parent="pJNRvae56pVTqdE-GDw2-236">
          <mxGeometry y="60" width="300" height="26" as="geometry" />
        </mxCell>
        <mxCell id="pJNRvae56pVTqdE-GDw2-240" value="" style="line;strokeWidth=1;fillColor=none;align=left;verticalAlign=middle;spacingTop=-1;spacingLeft=3;spacingRight=3;rotatable=0;labelPosition=right;points=[];portConstraint=eastwest;strokeColor=inherit;" vertex="1" parent="pJNRvae56pVTqdE-GDw2-236">
          <mxGeometry y="86" width="300" height="8" as="geometry" />
        </mxCell>
        <mxCell id="pJNRvae56pVTqdE-GDw2-241" value="+ setUp (): void" style="text;strokeColor=none;fillColor=none;align=left;verticalAlign=top;spacingLeft=4;spacingRight=4;overflow=hidden;rotatable=0;points=[[0,0.5],[1,0.5]];portConstraint=eastwest;whiteSpace=wrap;html=1;" vertex="1" parent="pJNRvae56pVTqdE-GDw2-236">
          <mxGeometry y="94" width="300" height="26" as="geometry" />
        </mxCell>
        <mxCell id="pJNRvae56pVTqdE-GDw2-242" value="+ testSuccessfulImport (): void" style="text;strokeColor=none;fillColor=none;align=left;verticalAlign=top;spacingLeft=4;spacingRight=4;overflow=hidden;rotatable=0;points=[[0,0.5],[1,0.5]];portConstraint=eastwest;whiteSpace=wrap;html=1;" vertex="1" parent="pJNRvae56pVTqdE-GDw2-236">
          <mxGeometry y="120" width="300" height="26" as="geometry" />
        </mxCell>
        <mxCell id="pJNRvae56pVTqdE-GDw2-243" value="+ testDuplicateDriverSkipped (): void" style="text;strokeColor=none;fillColor=none;align=left;verticalAlign=top;spacingLeft=4;spacingRight=4;overflow=hidden;rotatable=0;points=[[0,0.5],[1,0.5]];portConstraint=eastwest;whiteSpace=wrap;html=1;" vertex="1" parent="pJNRvae56pVTqdE-GDw2-236">
          <mxGeometry y="146" width="300" height="26" as="geometry" />
        </mxCell>
        <mxCell id="pJNRvae56pVTqdE-GDw2-244" value="+ testInvalidDateSkipped (): void" style="text;strokeColor=none;fillColor=none;align=left;verticalAlign=top;spacingLeft=4;spacingRight=4;overflow=hidden;rotatable=0;points=[[0,0.5],[1,0.5]];portConstraint=eastwest;whiteSpace=wrap;html=1;" vertex="1" parent="pJNRvae56pVTqdE-GDw2-236">
          <mxGeometry y="172" width="300" height="26" as="geometry" />
        </mxCell>
        <mxCell id="pJNRvae56pVTqdE-GDw2-245" value="+ testUnknownDriverInTripSkipped (): void" style="text;strokeColor=none;fillColor=none;align=left;verticalAlign=top;spacingLeft=4;spacingRight=4;overflow=hidden;rotatable=0;points=[[0,0.5],[1,0.5]];portConstraint=eastwest;whiteSpace=wrap;html=1;" vertex="1" parent="pJNRvae56pVTqdE-GDw2-236">
          <mxGeometry y="198" width="300" height="26" as="geometry" />
        </mxCell>
        <mxCell id="pJNRvae56pVTqdE-GDw2-246" value="+ testEndBeforeStartSkipped (): void" style="text;strokeColor=none;fillColor=none;align=left;verticalAlign=top;spacingLeft=4;spacingRight=4;overflow=hidden;rotatable=0;points=[[0,0.5],[1,0.5]];portConstraint=eastwest;whiteSpace=wrap;html=1;" vertex="1" parent="pJNRvae56pVTqdE-GDw2-236">
          <mxGeometry y="224" width="300" height="26" as="geometry" />
        </mxCell>
        <mxCell id="pJNRvae56pVTqdE-GDw2-247" value="+ testEmptyFileDoesNotCrash (): void" style="text;strokeColor=none;fillColor=none;align=left;verticalAlign=top;spacingLeft=4;spacingRight=4;overflow=hidden;rotatable=0;points=[[0,0.5],[1,0.5]];portConstraint=eastwest;whiteSpace=wrap;html=1;" vertex="1" parent="pJNRvae56pVTqdE-GDw2-236">
          <mxGeometry y="250" width="300" height="26" as="geometry" />
        </mxCell>
        <mxCell id="pJNRvae56pVTqdE-GDw2-248" value="1" style="endArrow=open;html=1;endSize=12;startArrow=diamondThin;startSize=14;startFill=0;edgeStyle=orthogonalEdgeStyle;align=left;verticalAlign=bottom;rounded=0;" edge="1" parent="WIyWlLk6GJQsqaUBKTNV-1">
          <mxGeometry x="-1" y="3" relative="1" as="geometry">
            <mxPoint x="-500" y="227" as="sourcePoint" />
            <mxPoint x="-340" y="227" as="targetPoint" />
          </mxGeometry>
        </mxCell>
        <mxCell id="pJNRvae56pVTqdE-GDw2-249" value="1" style="endArrow=open;html=1;endSize=12;startArrow=diamondThin;startSize=14;startFill=0;edgeStyle=orthogonalEdgeStyle;align=left;verticalAlign=bottom;rounded=0;" edge="1" parent="WIyWlLk6GJQsqaUBKTNV-1">
          <mxGeometry x="-1" y="3" relative="1" as="geometry">
            <mxPoint x="-500" y="473.5799999999999" as="sourcePoint" />
            <mxPoint x="-340" y="473.5799999999999" as="targetPoint" />
          </mxGeometry>
        </mxCell>
        <mxCell id="pJNRvae56pVTqdE-GDw2-250" value="1" style="endArrow=open;html=1;endSize=12;startArrow=diamondThin;startSize=14;startFill=0;edgeStyle=orthogonalEdgeStyle;align=left;verticalAlign=bottom;rounded=0;" edge="1" parent="WIyWlLk6GJQsqaUBKTNV-1">
          <mxGeometry x="-1" y="3" relative="1" as="geometry">
            <mxPoint x="-500" y="705" as="sourcePoint" />
            <mxPoint x="-340" y="705" as="targetPoint" />
          </mxGeometry>
        </mxCell>
        <mxCell id="pJNRvae56pVTqdE-GDw2-251" value="1" style="endArrow=open;html=1;endSize=12;startArrow=diamondThin;startSize=14;startFill=0;edgeStyle=orthogonalEdgeStyle;align=left;verticalAlign=bottom;rounded=0;" edge="1" parent="WIyWlLk6GJQsqaUBKTNV-1">
          <mxGeometry x="-1" y="3" relative="1" as="geometry">
            <mxPoint x="-500" y="928.1700000000001" as="sourcePoint" />
            <mxPoint x="-340" y="928.1700000000001" as="targetPoint" />
          </mxGeometry>
        </mxCell>
        <mxCell id="pJNRvae56pVTqdE-GDw2-252" value="1" style="endArrow=open;html=1;endSize=12;startArrow=diamondThin;startSize=14;startFill=0;edgeStyle=orthogonalEdgeStyle;align=left;verticalAlign=bottom;rounded=0;" edge="1" parent="WIyWlLk6GJQsqaUBKTNV-1">
          <mxGeometry x="-1" y="3" relative="1" as="geometry">
            <mxPoint x="-500" y="1165.17" as="sourcePoint" />
            <mxPoint x="-340" y="1165.17" as="targetPoint" />
          </mxGeometry>
        </mxCell>
        <mxCell id="pJNRvae56pVTqdE-GDw2-253" value="CarSearchService" style="rounded=0;whiteSpace=wrap;html=1;fillColor=#d80073;fontColor=#ffffff;strokeColor=#A50040;" vertex="1" parent="WIyWlLk6GJQsqaUBKTNV-1">
          <mxGeometry x="-340" y="210" width="140" height="30" as="geometry" />
        </mxCell>
        <mxCell id="pJNRvae56pVTqdE-GDw2-254" value="DriverSearchService" style="rounded=0;whiteSpace=wrap;html=1;fillColor=#d80073;fontColor=#ffffff;strokeColor=#A50040;" vertex="1" parent="WIyWlLk6GJQsqaUBKTNV-1">
          <mxGeometry x="-340" y="460" width="140" height="30" as="geometry" />
        </mxCell>
        <mxCell id="pJNRvae56pVTqdE-GDw2-255" value="LostAndFoundService" style="rounded=0;whiteSpace=wrap;html=1;fillColor=#d80073;fontColor=#ffffff;strokeColor=#A50040;" vertex="1" parent="WIyWlLk6GJQsqaUBKTNV-1">
          <mxGeometry x="-340" y="690" width="140" height="30" as="geometry" />
        </mxCell>
        <mxCell id="pJNRvae56pVTqdE-GDw2-256" value="RadarTrapService" style="rounded=0;whiteSpace=wrap;html=1;fillColor=#d80073;fontColor=#ffffff;strokeColor=#A50040;" vertex="1" parent="WIyWlLk6GJQsqaUBKTNV-1">
          <mxGeometry x="-340" y="910" width="140" height="30" as="geometry" />
        </mxCell>
        <mxCell id="pJNRvae56pVTqdE-GDw2-257" value="ImportService" style="rounded=0;whiteSpace=wrap;html=1;fillColor=#d80073;fontColor=#ffffff;strokeColor=#A50040;" vertex="1" parent="WIyWlLk6GJQsqaUBKTNV-1">
          <mxGeometry x="-340" y="1153" width="140" height="30" as="geometry" />
        </mxCell>
      </root>
    </mxGraphModel>
  </diagram>
</mxfile>
